<?xml version="1.0" encoding="utf-8"?>
<!-- Generator: Adobe Illustrator 21.0.0, SVG Export Plug-In . SVG Version: 6.00 Build 0)  -->
<svg version="1.1" id="Ebene_2" xmlns="http://www.w3.org/2000/svg" xmlns:xlink="http://www.w3.org/1999/xlink" x="0px" y="0px"
	 viewBox="0 0 283.5 240" style="enable-background:new 0 0 283.5 240;" xml:space="preserve">
<style type="text/css">
	.st0{fill:#A63322;}
	.st1{fill:#A63323;}
</style>
<path class="st0" d="M94.8,24.7c0.1-1.6,0-3.2-0.1-4.8c-0.1-1.6-0.2-3.2-0.3-4.8c0-0.8,0-1.6,0.1-2.4c0-0.8,0.2-1.6,0.4-2.4
	c0.2-0.5,0.4-0.7,0.8-0.7c0.4,0.1,0.8,0.1,1.2,0.1c0.7,0.1,1.5,0.1,2.3,0.2c0.8,0,1.6,0.1,2.3,0.1c1.1,0,2.2-0.1,3.1-0.3
	c0.4-0.1,0.8-0.2,1.4-0.2c0.6,0,1.2,0,1.7,0.1c0.6,0.1,1.1,0.3,1.5,0.5c0.4,0.2,0.6,0.5,0.6,0.9c0,2.7,0,5.4-0.1,8
	c-0.1,2.6-0.1,5.3-0.1,7.9c0.1,1.1,0.1,2.1,0.1,3.1c0,1,0,2,0,3.1c0,0.6,0.2,1,0.7,1.2c0.5,0.2,1.1,0.3,1.8,0.3
	c0.8,0,1.6-0.1,2.5-0.2c0.9-0.1,1.6-0.1,2.1,0.1l-0.2-15.9c0-1.1,0-2.2-0.1-3.3c-0.1-1.2,0-2.3,0.1-3.3c0-0.7,0.2-1.2,0.4-1.5
	s0.5-0.5,0.8-0.6c0.3-0.1,0.7-0.1,1.2-0.1s1,0,1.5,0l7.8,0.2c0.6,0,1.1,0,1.5-0.1c0.4,0,0.8,0,1.1,0.1s0.5,0.3,0.7,0.6
	c0.2,0.3,0.3,0.8,0.4,1.4c0.1,0.8,0.1,1.7,0.1,2.5c0,0.9-0.1,1.7-0.2,2.6c-0.1,0.9-0.2,1.7-0.3,2.6c-0.1,0.9-0.1,1.7-0.1,2.6
	c0.1,0.9,0.1,1.9,0.2,2.8c0.1,0.9,0.1,1.8,0.1,2.8c0,1-0.1,2.1-0.3,3.1c-0.1,0.6-0.2,1.3-0.2,2c0,0.7,0,1.5,0.1,2.2
	c0,0.8,0.1,1.5,0.1,2.3c0.1,0.8,0.1,1.5,0,2.1c0,2.8,0,5.6-0.1,8.3c0,2.8-0.1,5.6-0.1,8.4v9.1c0,0.7-0.2,1.4-0.7,2.2
	c-0.5,0.8-0.9,1.5-1.2,2.2c0.2,0.3,0.4,0.5,0.6,0.7c0.2,0.1,0.3,0.3,0.4,0.4c0.1,0.1,0.2,0.3,0.3,0.6s0.2,0.6,0.3,1.1
	c0.1,0.4,0.2,0.9,0.3,1.5c0.1,0.6,0.1,1.2,0.1,1.8c0,0.6-0.2,1.1-0.4,1.5c-0.2,0.4-0.6,0.7-1.2,0.7c-1.2,0.2-2.5,0.3-3.6,0.3
	c-1.2,0-2.4,0-3.6-0.1c-0.4,0-0.9,0-1.5,0.1c-0.6,0-1.2,0-1.7-0.1c-0.6-0.1-1-0.2-1.5-0.5c-0.4-0.2-0.7-0.6-0.8-1.2
	c-0.3-1.3-0.4-2.7-0.4-4.2c0-1.5,0-2.9-0.1-4.3c-0.1-1.2-0.1-2.3-0.1-3.5c0-1.2,0-2.3,0-3.5c0-1.7,0-3.4,0.1-5.1
	c0.1-1.7,0.2-3.4,0.4-5c0.2-1.6,0-2.7-0.6-3.3c-0.6-0.6-1.5-0.9-2.7-0.9c-0.4,0-0.9,0-1.4,0.1c-0.5,0.1-1,0.2-1.5,0.3
	c-0.3,0.1-0.6,0.3-0.8,0.7c-0.2,0.4-0.4,0.9-0.5,1.6c-0.1,0.7-0.2,1.4-0.3,2.2c-0.1,0.8-0.1,1.7-0.1,2.6c0,1,0,2,0.1,3
	c0.1,1,0.1,1.9,0.2,2.8c0.1,0.9,0.1,1.7,0.2,2.4c0.1,0.7,0.1,1.2,0.1,1.6c0.1,1.6,0.1,3.1,0.2,4.7c0,1.5,0,3.1-0.1,4.6
	c0,0.5,0,1.1,0.1,1.7c0.1,0.6,0.1,1.1,0,1.6c-0.1,0.5-0.2,0.9-0.5,1.2c-0.3,0.3-0.7,0.5-1.4,0.6c-1.2,0.1-2.4,0.2-3.6,0.3
	c-1.2,0.1-2.5,0.2-3.8,0.2c-0.7,0-1.3,0-2-0.1c-0.7-0.1-1.3-0.1-1.9-0.3c-0.7-0.1-1.2-0.4-1.5-0.9c-0.3-0.5-0.5-1.1-0.6-1.7
	c-0.1-0.7-0.1-1.3-0.1-2c0.1-0.7,0.1-1.3,0.1-1.9c0-2.5,0-5.1,0.1-7.6c0-2.5,0.1-5,0.1-7.5V24.7z M108.7,46.1
	c-0.4,0.4-0.9,0.6-1.5,0.6c0.2,0.2,0.4,0.3,0.6,0.3c0.2,0,0.3,0,0.5-0.1c0.1-0.1,0.2-0.2,0.3-0.4C108.6,46.4,108.7,46.3,108.7,46.1z
	 M109.5,45.6c0-0.2,0-0.3,0.1-0.5c0-0.2,0.1-0.4,0.1-0.5c-0.1,0.2-0.3,0.4-0.5,0.5c-0.2,0.1-0.3,0.3-0.1,0.6H109.5z M110.8,44.7
	c-0.2,0-0.3-0.1-0.3-0.1s-0.1-0.1-0.1-0.1c0-0.1,0-0.1-0.1-0.2c0-0.1-0.1-0.2-0.2-0.3c0.2,0.6,0.3,1,0.3,1.2c0,0.2,0.1,0.2,0.1,0.2
	s0-0.2,0.1-0.4C110.5,44.9,110.6,44.8,110.8,44.7z M110.3,38.8c-0.2,0.5-0.2,1,0,1.5c0.1-0.1,0.2-0.2,0.3-0.3
	c0.1-0.1,0.1-0.2,0.2-0.2c0-0.1,0-0.2-0.1-0.3C110.6,39.3,110.5,39,110.3,38.8z M112.2,37.8c-0.1,0.6-0.2,1.1-0.3,1.7
	c-0.1,0.6-0.3,1.1-0.5,1.6c0.3,0,0.5-0.2,0.7-0.4c0.2-0.3,0.3-0.5,0.4-0.9c0.1-0.3,0.1-0.7,0-1.1C112.4,38.4,112.3,38.1,112.2,37.8z
	 M114,45.1c-0.2-0.3-0.4-0.4-0.5-0.5c-0.1-0.1-0.2-0.3-0.3-0.8c0,0-0.1,0.1-0.3,0.2s-0.3,0.2-0.5,0.4c-0.2,0.2-0.3,0.3-0.4,0.4
	c-0.1,0.1-0.2,0.2-0.2,0.3c0.3,0.2,0.6,0.3,1,0.3S113.6,45.2,114,45.1z M113.2,42.4c-0.5,0.3-0.5,0.7,0.1,1.3
	c0.1-0.2,0.2-0.5,0.2-0.7C113.5,42.8,113.4,42.6,113.2,42.4z M114.3,35.9c-0.1,0.6-0.2,1-0.3,1.4c-0.1,0.4-0.1,0.7-0.1,1
	c0,0.3,0.1,0.6,0.2,0.9c0.2,0.3,0.4,0.6,0.8,1c-0.2-0.3-0.3-0.7-0.4-1c0-0.3,0-0.7,0-1c0-0.4,0-0.7,0-1.1
	C114.5,36.7,114.4,36.3,114.3,35.9z M115.1,44.9c0.3-0.7,0.3-1.3,0-1.9c-0.1,0.4-0.2,0.8-0.3,1.1C114.7,44.4,114.8,44.7,115.1,44.9z
	 M118.8,59.8c-0.5-0.2-0.8,0-0.8,0.5c0.2-0.2,0.4-0.3,0.7-0.2c-0.3,0.4-0.5,0.8-0.5,1.1c0,0.3,0,0.7,0.1,1.2c0.5-0.1,0.9-0.3,1-0.4
	s0.2-0.2,0.1-0.4s-0.1-0.3-0.1-0.5c0-0.2,0.1-0.5,0.4-0.8c0.2,0.2,0.3,0.3,0.5,0.3c-0.2-0.3-0.3-0.7-0.5-1.1
	c-0.2-0.4-0.4-0.6-0.7-0.8c0,0.2,0,0.4-0.1,0.6C118.9,59.4,118.8,59.6,118.8,59.8z M119.2,67.7c0.1-0.8-0.2-1.4-0.8-1.8
	c0.1,0.4,0.1,0.7,0.2,1c0.1,0.3,0.1,0.7,0.2,1L119.2,67.7z M120.5,47.7c0.1-0.5,0.2-0.8,0.2-0.9s0-0.1-0.1,0s-0.1,0.2-0.2,0.3
	c-0.1,0.1-0.1,0.1-0.2,0.1c0,0.1,0,0.1-0.1,0.2c0,0.1-0.1,0.1-0.1,0.3H120.5z M120.3,57.4c0.3-0.1,0.4-0.3,0.2-0.6L120.3,57.4z
	 M120.3,61.3c0.3-0.1,0.5-0.4,0.7-0.8s0.2-0.8,0.1-1c-0.2,0.4-0.4,0.7-0.5,0.9C120.5,60.6,120.4,60.9,120.3,61.3z M120.7,59.2
	c0.3-0.2,0.5-0.1,0.6,0.2c0.1-0.5-0.1-0.7-0.6-0.7C120.4,58.8,120.4,59,120.7,59.2z M121.2,45.3c-0.1,0.3-0.1,0.5-0.1,0.5
	s0.1,0,0.3,0.1c-0.1-0.1-0.1-0.2-0.1-0.3C121.3,45.5,121.3,45.4,121.2,45.3z M122.2,59.4c-0.5,0.8-0.4,1.3,0.3,1.3
	C122.9,60,122.8,59.6,122.2,59.4z M122.7,57c-0.3,0.7-0.4,1.1-0.4,1.2c0,0.1,0.2,0,0.4-0.4V57z M123.2,67.8
	c-0.2,0.5-0.3,0.9-0.3,1.2s0.3,0.5,0.9,0.7c0.1-0.4,0.1-0.5,0-0.5c-0.1,0-0.3,0-0.6,0C123.4,68.7,123.4,68.3,123.2,67.8z
	 M123.1,48.8h0.5c0-0.2,0-0.4,0-0.6c0-0.1,0-0.2,0-0.3s0-0.1-0.1-0.1c-0.1,0-0.2-0.1-0.4-0.2V48.8z M124.5,51.1
	c-0.4-0.4-0.7-0.5-0.9-0.2c-0.1,0.3-0.2,0.6-0.1,1c0.2-0.1,0.3-0.3,0.5-0.4C124.3,51.5,124.4,51.3,124.5,51.1z"/>
<path class="st0" d="M156,76.2c-1.4,0.9-2.8,1.5-4,1.9c-1.3,0.4-2.6,0.6-4.1,0.6c-0.5,0-1,0-1.5-0.1c-0.5-0.1-1.1-0.1-1.7-0.2
	c-1.6-0.4-3-1-4.3-1.9c-1.3-0.9-2.2-2.1-2.7-3.7c-0.6-1.6-1-3.3-1.2-5.1c-0.3-1.8-0.4-3.6-0.4-5.5c0-2,0.1-3.9,0.4-5.8
	c0.2-1.9,0.6-3.7,1-5.4c0.4-1.8,1.2-3.4,2.3-4.8c1.1-1.4,2.5-2.5,4-3.5c1.5-1,3.1-1.8,4.9-2.5c1.7-0.7,3.4-1.3,5-1.9
	c0.8-0.2,1.4-0.5,1.8-0.8c0.4-0.3,0.8-0.7,1-1.1c0.2-0.4,0.3-0.9,0.4-1.4c0-0.6,0-1.2-0.1-2c-0.1-0.8-0.3-1.6-0.7-2.4
	c-0.4-0.7-1-1.2-1.9-1.4c-0.7-0.1-1.3-0.1-1.7,0c-0.4,0.1-0.8,0.3-1.1,0.5c-0.3,0.2-0.7,0.4-1,0.6c-0.3,0.2-0.7,0.3-1.2,0.3
	c0.1,0.2,0.2,0.3,0.2,0.4c0,0.1,0,0.1,0,0.2c0,0,0,0,0.1,0c0.1,0,0.2-0.1,0.5-0.2c-0.1,0.4,0,0.9,0.1,1.5c0.1,0.6,0.2,1.2,0.3,1.8
	c0.1,0.6,0.1,1.1,0,1.7c-0.1,0.5-0.3,1-0.7,1.3c-0.5-0.1-1-0.3-1.6-0.4c-0.6-0.1-1.2-0.2-1.9-0.3c-0.7-0.1-1.3-0.1-1.9-0.2
	c-0.6,0-1.2,0-1.7,0.1c-0.4,0.1-0.9,0.2-1.4,0.3c-0.5,0.1-1,0.2-1.5,0.2c-0.5,0-0.9,0-1.4-0.2c-0.4-0.1-0.8-0.4-1.1-0.9
	c0.1-0.4,0.1-0.9,0.1-1.4c0-0.5,0-0.9-0.1-1.4s0-0.9,0-1.4c0-0.5,0.1-0.9,0.3-1.3c0.2-0.5,0.4-1,0.6-1.6c0.2-0.6,0.3-1.1,0.4-1.7
	c0.1-0.6,0.3-1.1,0.5-1.6c0.2-0.5,0.4-1,0.8-1.4c0.5-0.6,1.1-1.2,1.8-1.8c0.7-0.6,1.4-1.1,2.1-1.6c0.4-0.2,0.9-0.5,1.6-0.7
	s1.4-0.4,2.3-0.6c0.8-0.2,1.7-0.3,2.5-0.5c0.9-0.1,1.7-0.2,2.5-0.2c1,0,2,0.1,2.7,0.4c0.8,0.2,1.3,0.6,1.5,1.2
	c0.4-0.4,0.8-0.6,1.2-0.7c0.4-0.1,0.8-0.1,1.2,0.1c0.4,0.1,0.8,0.2,1.3,0.4c0.4,0.2,0.9,0.3,1.5,0.4c0.4,0.1,0.9,0.3,1.6,0.7
	c0.7,0.4,1.3,0.8,2,1.4c0.6,0.5,1.2,1.1,1.6,1.7c0.4,0.6,0.6,1.1,0.4,1.5c0.3,0,0.6,0.2,1,0.8c0.3,0.6,0.6,1.2,0.9,2
	c0.3,0.8,0.5,1.5,0.7,2.3c0.2,0.8,0.3,1.3,0.3,1.7c0.2,1.5,0.3,3,0.3,4.5c0,1.2-0.1,2.4-0.3,3.5c-0.1,0.7-0.2,1.4-0.2,2.1
	c0,0.8,0.1,1.5,0.2,2.3c0.1,0.8,0.2,1.5,0.3,2.3c0.1,0.8,0.1,1.5,0.1,2.2c-0.1,1.5-0.2,3-0.3,4.5c-0.1,1.5-0.1,3,0,4.6
	c0.1,2,0.1,4,0.1,6c0,2,0,4,0.1,6c0,0.4,0,0.9,0.1,1.5c0,0.5,0.1,1.1,0.1,1.7c0,0.5,0,1.1-0.1,1.6c-0.1,0.5-0.2,1-0.3,1.5
	c-0.2,0.5-0.4,0.8-0.7,1.1c-0.3,0.3-0.7,0.5-1.1,0.5c-2.7,0.3-5.4,0.4-8.2,0.3c-0.7,0-1.3-0.1-1.8-0.1c-0.5,0-0.9-0.1-1.2-0.3
	s-0.6-0.4-0.8-0.8c-0.2-0.4-0.3-0.9-0.4-1.6L156,76.2z M149,29.1c0-0.1,0-0.2,0.1-0.3s0.1-0.1,0.2-0.1s0,0,0-0.1s-0.2-0.1-0.4-0.3
	c0,0.1,0,0.2,0,0.3C148.9,28.9,148.9,29,149,29.1c0,0.1,0,0.2,0,0.2S149,29.3,149,29.1z M153.5,49.6c-0.4,0.4-0.8,1-1.2,1.9
	c-0.4,0.9-0.8,1.9-1.1,3c-0.3,1.1-0.6,2.4-0.8,3.6c-0.2,1.3-0.3,2.5-0.3,3.7c0,0.9,0.1,1.8,0.2,2.6c0.1,0.8,0.4,1.5,0.7,2.1
	c0.3,0.6,0.8,1.1,1.3,1.4c0.5,0.3,1.2,0.4,1.9,0.3c0.7-0.1,1.3-0.6,1.7-1.3c0.4-0.7,0.6-1.5,0.8-2.4c0.1-0.9,0.2-1.8,0.2-2.8
	c0-0.9,0-1.7,0-2.2c0-0.8-0.1-1.7-0.2-2.5c-0.1-0.8-0.2-1.7-0.2-2.5c0-0.5,0.1-1.1,0.2-1.6c0.1-0.6,0.2-1.1,0.3-1.7
	c0.1-0.6,0.1-1.1,0.1-1.6c0-0.5-0.1-1.1-0.4-1.6C155.5,48.5,154.5,49,153.5,49.6z M165.5,28.2c0.2,0,0.3,0,0.4,0s0.2-0.1,0.3-0.3
	l-0.7-0.6V28.2z M167.2,26.7c-0.2,0.4-0.1,0.7,0.2,0.8C167.5,27,167.5,26.7,167.2,26.7z"/>
<path class="st0" d="M195.4,42.5c-0.3-0.3-0.6-0.7-0.7-1.2c-0.1-0.5-0.2-1.1-0.2-1.7c0-0.5,0-1.1,0.1-1.7c0.1-0.6,0.1-1.2,0.2-1.7
	c0.1-0.6,0.1-1.1,0.2-1.5c0.1-0.5,0.1-0.9,0-1.2c0-0.7-0.2-1.4-0.5-2.3c-0.3-0.9-0.7-1.6-1.2-2.2c-0.5-0.6-1.1-0.9-1.7-1
	c-0.7-0.1-1.4,0.3-2.2,1.3c-0.5,0.5-0.8,0.9-1,1.3c-0.2,0.4-0.3,0.7-0.3,1.1c0,0.4,0,0.8,0,1.3s0.1,1.2,0.1,2
	c0.1,1.8,0.1,3.7-0.1,5.5c-0.1,1.8-0.2,3.6-0.3,5.4c-0.1,3,0,6,0.2,9.1c0.2,3,0.4,6,0.7,9c0,0.5,0.1,1.1,0.3,1.6
	c0.2,0.5,0.4,0.9,0.7,1.3c0.3,0.4,0.6,0.7,1,0.9c0.4,0.2,0.7,0.4,1.1,0.4c0.5,0,0.9-0.2,1.4-0.7c0.4-0.5,0.8-1.1,1.2-1.8
	c0.5-1.1,0.8-2.3,0.8-3.6c0-0.6,0-1.3-0.1-1.9c-0.1-0.7-0.1-1.3-0.2-1.9c-0.1-0.6-0.1-1.3-0.1-1.9c0-0.6,0-1.2,0.1-1.8
	c0.1-0.5,0.5-0.8,1.2-1c0.7-0.2,1.5-0.3,2.5-0.3c1,0,1.9,0.1,2.8,0.2c0.9,0.1,1.6,0.2,2.1,0.2c0.2,0,0.6,0,1.2-0.1
	c0.6,0,1.2,0,1.8,0c0.6,0,1.2,0.1,1.7,0.2c0.5,0.1,0.7,0.2,0.7,0.5c0,1,0,2.1,0.1,3.2c0,1.1,0.1,2.3,0.1,3.4c0,1.2,0,2.4-0.1,3.5
	c-0.1,1.2-0.2,2.4-0.5,3.5c-0.2,1.2-0.6,2.3-1,3.3c-0.4,1.1-1,2-1.7,2.9c-0.7,1-1.6,1.8-2.7,2.5c-1,0.7-2.2,1.2-3.4,1.7
	c-1.2,0.4-2.5,0.8-3.8,1c-1.3,0.2-2.7,0.3-4,0.3c-1.7,0-3.3-0.2-4.9-0.5c-1.6-0.3-3-0.8-4.2-1.4c-1.7-0.7-3.1-1.8-4.1-3
	c-1.1-1.3-2-2.7-2.6-4.3c-0.7-1.6-1.1-3.3-1.4-5.1c-0.3-1.8-0.4-3.5-0.4-5.3c0-1.6,0.1-3.1,0.3-4.7c0.2-2.4,0.3-4.9,0.3-7.5
	c0-1.3,0-2.5-0.1-3.8c0-1.3,0-2.5,0.1-3.8c0-0.1,0-0.5,0-1.1c0-0.6,0.1-1.2,0.1-2s0.1-1.6,0.2-2.4c0.1-0.8,0.2-1.6,0.3-2.3
	c0.1-0.7,0.2-1.2,0.4-1.6c0.2-0.4,0.3-0.6,0.5-0.5c-0.1-0.1-0.1-0.4-0.1-0.8c0-0.4,0.1-0.9,0.2-1.4c0.1-0.5,0.3-1.1,0.5-1.6
	c0.2-0.6,0.4-1,0.7-1.4c0.3-0.4,0.5-0.6,0.9-0.8c0.3-0.1,0.6,0,1,0.3c0-0.7,0.3-1.3,0.7-1.9c0.4-0.6,1-1.1,1.6-1.5
	c0.6-0.5,1.3-0.8,2-1.2c0.7-0.3,1.3-0.6,1.9-0.7c0.5-0.1,1-0.1,1.5,0c0.5,0.1,0.9,0.3,1.4,0.6c0.4,0.2,0.8,0.4,1.1,0.6
	c0.3,0.2,0.6,0.2,0.8,0.1c0,0.2,0.1,0.4,0.2,0.6c0.1,0.2,0.2,0.4,0.3,0.5c0.1,0.1,0.3,0.2,0.4,0.1c0.1-0.1,0.2-0.2,0.3-0.5
	c-0.1-0.1-0.2-0.2-0.4-0.2c-0.2,0-0.3,0-0.4,0c0.4-0.6,0.8-1.1,1.1-1.4c0.3-0.3,0.7-0.6,1-0.7c0.4-0.1,0.8-0.2,1.3-0.2
	c0.5,0,1.1,0.1,1.9,0.2c1,0.2,2,0.4,3,0.7c1,0.3,1.9,0.6,2.9,1.1c0.9,0.4,1.7,1,2.5,1.6c0.8,0.6,1.4,1.3,1.9,2.1
	c0.5,0.8,0.9,1.6,1.2,2.5c0.3,0.9,0.3,1.9,0.2,3c0.1-0.2,0.3-0.4,0.6-0.5c0.3,1.6,0.5,3.2,0.7,4.8c0.2,1.6,0.3,3.3,0.3,4.9
	c0,0.8,0,1.5,0,2.1c0,0.5-0.1,1-0.3,1.3c-0.2,0.3-0.4,0.5-0.8,0.7c-0.4,0.1-1,0.2-1.7,0.3c-0.2,0-0.6,0-1.1,0.1
	c-0.5,0-1,0.1-1.6,0.1c-0.6,0.1-1.2,0.1-1.9,0.1c-0.7,0-1.3,0.1-2,0.1c-1,0-1.9-0.1-2.7-0.2C196.1,42.9,195.6,42.7,195.4,42.5z
	 M176.8,29.5c0.5-0.2,0.8-0.4,0.9-0.8c0.2-0.4,0-0.8-0.4-1.2L176.8,29.5z M177.3,33.5c0.3-0.1,0.5-0.2,0.4-0.4
	c-0.1-0.2-0.2-0.3-0.4-0.5V33.5z M177.8,30.8c0.1-0.5-0.1-0.6-0.5-0.5c0,0.2,0,0.3,0.1,0.3S177.7,30.8,177.8,30.8z M179.5,26.6
	c0.4-0.2,0.6-0.6,0.8-1.3c-0.3,0.2-0.5,0.4-0.6,0.7S179.5,26.5,179.5,26.6z M179.9,44.8c0.1,0.2,0.1,0.3,0.2,0.3
	c0,0.1,0.1,0.2,0.3,0.3C180.3,45.2,180.2,44.9,179.9,44.8z M181,26.6c-0.2,0.3-0.3,0.5-0.3,0.6c0,0.1,0,0.3,0.2,0.6
	C181.5,27.4,181.6,27,181,26.6z M181.1,44.5c0.4-0.3,0.5-0.7,0.2-1.1c-0.3,0.4-0.5,0.7-0.5,0.9C180.8,44.5,180.9,44.6,181.1,44.5z
	 M181.4,24.1c0.2-0.3,0.2-0.6-0.1-0.8C181.2,23.7,181.3,24,181.4,24.1z M181.7,40.1c0,0.2,0,0.3,0,0.3c0,0,0.1,0.1,0.2,0.2
	L181.7,40.1z M182.6,40.1c0.2-0.3,0.2-0.6,0.1-1c-0.3,0.5-0.5,0.8-0.6,1C182.1,40.3,182.3,40.3,182.6,40.1z M183.5,34.8
	c0.5,0.1,0.5-0.2,0.1-0.9c0,0.2,0,0.3,0,0.5C183.6,34.5,183.6,34.7,183.5,34.8z M192.8,26.9c0.2-0.3,0.2-0.5,0.2-0.6
	c0-0.1-0.2-0.2-0.4-0.3C192.5,26.3,192.5,26.6,192.8,26.9z M192.8,19.9c0.3-0.1,0.3-0.3,0.1-0.7c-0.2,0.1-0.3,0.2-0.3,0.3
	c0,0.1,0,0.1,0,0.2c0,0.1,0.1,0.1,0.1,0.1C192.7,19.9,192.8,19.9,192.8,19.9z M200.6,26.9c-0.2,0.5-0.3,1.1-0.3,1.7
	c0.4-0.2,0.6-0.4,0.5-0.7C200.7,27.7,200.7,27.3,200.6,26.9z M200.7,30c0-0.2,0-0.4,0.1-0.5c0.1-0.1,0-0.2-0.2-0.3
	c0,0.2,0,0.3,0.1,0.4C200.7,29.7,200.7,29.8,200.7,30z M201.1,25.2c-0.1,0.2-0.2,0.4-0.2,0.5c-0.1,0.1,0,0.2,0.2,0.4
	c0.3,0,0.4-0.1,0.4-0.2C201.5,25.6,201.4,25.4,201.1,25.2z M206.3,31.4c0.2-0.1,0.3-0.3,0.4-0.4c0-0.1,0-0.1,0-0.2L206.3,31.4z"/>
<path class="st0" d="M227.1,27.7c0,0.7-0.1,1.7-0.2,3.1c-0.1,1.4-0.2,2.8-0.2,4.1c0,0.8,0,1.5,0.1,2.1c0.1,0.6,0.2,1,0.5,1.3
	c0.7-0.4,1.3-1,1.8-1.7c0.5-0.7,0.9-1.4,1.3-2.2c0.4-0.8,0.7-1.6,0.9-2.4c0.3-0.8,0.5-1.6,0.8-2.3c0-0.2,0.1-0.6,0.3-1.2
	c0.1-0.6,0.3-1.3,0.4-2c0.2-0.8,0.3-1.5,0.5-2.4c0.2-0.8,0.3-1.6,0.4-2.3c0.1-0.7,0.2-1.3,0.3-1.7c0.1-0.5,0.1-0.7,0-0.7
	c1-0.1,2.2-0.3,3.6-0.4c1.4-0.2,2.8-0.2,4.2-0.2c1,0,2,0.1,3,0.2c0.9,0.1,1.7,0.3,2.4,0.7c0.5,0.5,0.8,1.5,0.8,3
	c0,0.7-0.1,1.5-0.2,2.4c-0.1,0.8-0.3,1.7-0.4,2.4c-0.2,0.8-0.3,1.5-0.5,2.2c-0.2,0.7-0.3,1.2-0.4,1.6c-0.3,1.5-0.7,3-1.2,4.4
	c-0.5,1.4-1.1,2.8-1.7,4.2c-0.3,0.6-0.5,1.2-0.5,1.8s0.1,1.2,0.2,1.8c0.2,0.6,0.4,1.2,0.6,1.9c0.3,0.6,0.5,1.3,0.7,1.9
	c0.6,2.1,1.1,4.2,1.4,6.3c0.4,2.1,0.6,4.3,0.8,6.5c0.2,2.2,0.3,4.4,0.3,6.6c0,2.2,0.1,4.4,0.1,6.6c0,0.7,0,1.4,0.1,2
	c0.1,0.6,0.1,1.1,0,1.6c-0.1,0.5-0.3,0.9-0.6,1.2c-0.4,0.3-0.9,0.5-1.7,0.6c-1.5,0.1-2.9,0-4.3-0.2c-1.4-0.2-2.9-0.2-4.3,0.1
	c-0.4,0.1-0.9,0.1-1.4,0.1c-0.5,0-0.9-0.2-1.3-0.5c-0.3-0.3-0.5-0.6-0.6-0.8c-0.1-0.2-0.1-0.5-0.1-0.8c0-0.3,0.1-0.6,0.2-0.9
	c0.1-0.3,0.1-0.7,0.1-1.1c0-1.2-0.1-2.5-0.2-3.6c-0.1-1.2-0.2-2.4-0.2-3.6c0.1-2.7-0.1-5.3-0.4-7.9c-0.4-2.5-0.8-5.1-1.2-7.7
	c-1.1,0.1-2,0.4-2.5,0.9c-0.6,0.5-1,1.2-1.3,1.9c-0.3,0.8-0.4,1.6-0.5,2.5c0,0.9-0.1,1.7-0.1,2.5l-0.2,11.7V78
	c-0.1,0.2-0.3,0.3-0.5,0.4c-0.2,0.1-0.5,0.1-0.7,0.1c-0.3,0-0.5,0-0.8,0s-0.5,0-0.7,0c-0.6,0.1-1.3,0.1-1.9,0.1c-0.6,0-1.2,0-1.9,0
	c-0.6,0-1.2,0-1.8,0s-1.2,0-1.8-0.1c-0.6,0-1.2,0-1.7-0.1c-0.6-0.1-1.1-0.2-1.6-0.3c-0.3-0.1-0.4-0.3-0.5-0.8
	c-0.1-0.5-0.1-1-0.1-1.5c0-0.6,0.1-1.1,0.1-1.7c0.1-0.5,0.1-0.9,0.1-1.2c0-1.8,0-3.7,0-5.6c0-1.9,0-3.8,0.1-5.7
	c0-3.3,0.1-6.6,0.2-9.9c0.1-3.3,0.2-6.6,0.1-9.9c-0.1-1.3-0.1-2.5-0.1-3.8c0-1.3,0-2.5,0-3.8c0-2.5,0-5,0.1-7.5c0-2.5,0.1-5,0.1-7.5
	c-0.1-0.8-0.2-1.7-0.3-2.8c-0.1-1.1-0.2-2.1-0.2-3.2c0-0.6,0-1.2,0.1-1.8c0.1-0.6,0.2-1,0.4-1.4c0.1-0.3,0.4-0.5,0.8-0.7
	c0.4-0.1,0.8-0.2,1.2-0.3c0.4,0,0.9,0,1.3,0c0.4,0,0.8,0,1.1,0c1.2,0,2.4,0.1,3.6,0.2c1.2,0.1,2.4,0.3,3.6,0.6
	c0.9,0.2,1.6,0.5,1.8,1c0.3,0.5,0.4,1.1,0.4,1.7c0,0.5,0,1-0.1,1.5c-0.1,0.5-0.1,1.1-0.1,1.7V27.7z"/>
<path class="st0" d="M137.1,126c-1,0.4-1.7,1-2.3,1.9c-0.6,0.9-1.1,1.7-1.6,2.5c-0.4,0.8-1,1.7-1.6,2.6c-0.7,0.9-1.2,1.8-1.7,2.7
	c-0.5,0.9-0.8,1.9-1,2.9c-0.2,1,0,2,0.5,3c0.7,1.4,1.4,2.8,2.1,4.2c0.6,1.4,1.3,2.8,1.9,4.2c0.2,0.6,0.5,1.2,0.8,1.9
	c0.3,0.7,0.6,1.4,0.9,2.1c0.3,0.7,0.5,1.4,0.7,2.1c0.2,0.7,0.3,1.4,0.2,2c-0.5,0-1.1,0-1.8,0.1c-0.7,0.1-1.5,0.1-2.2,0.1
	c-0.4,0-0.8,0-1.2-0.1s-0.7-0.1-1-0.2c-0.3-0.1-0.5-0.2-0.7-0.4c-0.2-0.2-0.2-0.4-0.2-0.7c0-0.6,0-1-0.1-1.2c-0.1-0.2-0.2-0.2-0.3,0
	c-0.1,0.1-0.2,0.4-0.3,0.7c-0.1,0.3-0.2,0.7-0.2,1c-0.1,0.3-0.4,0.5-0.8,0.7s-0.9,0.2-1.4,0.3c-0.5,0.1-1,0.1-1.6,0.1
	c-0.5,0-1,0-1.4-0.1c-0.7,0-1.2-0.2-1.5-0.4c-0.3-0.2-0.5-0.5-0.6-0.9c-0.1-0.4-0.2-0.8-0.4-1.2c-0.1-0.5-0.4-0.9-0.8-1.3
	c-0.8,0.6-1.5,1.3-2.3,1.9c-0.7,0.6-1.6,1.2-2.5,1.6c-0.9,0.4-1.8,0.6-2.9,0.8c-1.1,0.2-2.2,0.2-3.3,0.2c-1,0-2-0.1-3-0.2
	c-1-0.1-2-0.3-2.9-0.6c-0.9-0.3-1.8-0.6-2.6-1c-0.8-0.4-1.5-0.9-2-1.5c-0.9-0.9-1.6-1.9-2.2-3.1c-0.6-1.1-1-2.3-1.4-3.6
	c-0.3-1.3-0.6-2.6-0.7-3.9c-0.1-1.3-0.2-2.6-0.2-3.9c0-0.6,0-1.1,0-1.7c0-0.6,0-1.1,0.1-1.7c0.3-4,1.2-7.5,2.8-10.7
	c1.6-3.2,3.9-6.2,6.7-8.9c0.4-0.4,0.7-0.8,0.8-1.2c0.1-0.4,0-0.8-0.1-1.2c-0.1-0.4-0.3-0.8-0.6-1.3c-0.3-0.5-0.5-0.9-0.6-1.4
	c-0.3-0.8-0.6-1.5-0.8-2.3c-0.3-0.8-0.5-1.5-0.6-2.3c-0.2-1-0.4-2-0.5-3c-0.1-1-0.2-2-0.2-2.9c0-0.7,0-1.3,0.1-1.9
	c0.1-0.6,0.2-1.2,0.3-1.9c0.4-1.7,1.2-3.3,2.3-4.7c1.1-1.4,2.4-2.5,4-3.3c0.7-0.5,1.5-0.5,2.4-0.1c0-0.6,0.3-0.9,0.9-1
	c0.6-0.2,1.2-0.4,1.9-0.5c0.7-0.1,1.3-0.1,1.9-0.1c1.5,0.2,3,0.3,4.4,0.5c1.5,0.2,2.8,0.4,4.1,0.9c1.3,0.4,2.4,1.1,3.5,1.9
	c1.1,0.9,2,2.1,2.8,3.6c1,2,1.5,4.1,1.5,6.3c0,1.6-0.3,3.3-0.8,4.9c-0.5,1.6-1.2,3.2-2,4.5c-0.7,1.1-1.5,2.2-2.3,3.4
	c-0.9,1.2-1.9,2.2-2.9,2.9c-0.4,0.3-0.7,0.5-0.9,0.6c-0.3,0.2-0.4,0.3-0.6,0.5c-0.1,0.2-0.2,0.4-0.2,0.7c0,0.3,0.1,0.7,0.3,1.3
	c0.2,0.6,0.3,1.3,0.4,2.1c0.1,0.8,0.2,1.5,0.5,2c0.6-0.4,0.9-0.2,0.9,0.7c0.2-0.1,0.4-0.3,0.6-0.6c0.2-0.3,0.4-0.6,0.6-1
	c0.2-0.4,0.4-0.7,0.5-1.1s0.3-0.6,0.4-0.8c0.5-0.7,1-1.4,1.5-2.1c0.5-0.7,1.1-1.3,1.6-2c0.4-0.3,0.7-0.7,1-1
	c0.3-0.3,0.6-0.6,0.9-0.7s0.6-0.2,0.9-0.1c0.3,0.1,0.6,0.4,1,0.9c0.5,0.7,0.9,1.6,1.3,2.6c0.4,1,0.9,1.8,1.3,2.3
	c0.1-0.1,0.1-0.2,0.1-0.3s0-0.2,0.1-0.2c0.2,0.2,0.4,0.5,0.7,0.8c0.3,0.3,0.5,0.7,0.7,1.1c0.2,0.4,0.4,0.8,0.5,1.2
	S137.2,125.6,137.1,126z M97.2,129.3c0.2,0.1,0.4,0.2,0.6,0.3s0.3,0,0.5-0.3c-0.2-0.1-0.4-0.3-0.5-0.6c-0.3,0.1-0.4,0.2-0.5,0.3
	S97.2,129.2,97.2,129.3z M105.1,99.2c0.1-0.3,0.2-0.5,0.2-0.6s-0.2-0.2-0.5-0.3c0,0.2,0,0.4,0,0.5C104.8,99,104.9,99.1,105.1,99.2z
	 M105.7,98.7c0-0.3,0-0.5-0.1-0.7c-0.1-0.2-0.2-0.4-0.4-0.6L105.7,98.7z M106.2,110.6c0,0,0.1-0.1,0.2-0.3c0.1-0.2,0.2-0.3,0.3-0.5
	s0.2-0.3,0.2-0.4s0-0.2-0.1-0.3c-0.1,0.2-0.1,0.2-0.2,0.2s-0.2,0-0.3,0.1c0-0.1,0-0.2,0-0.3c0-0.1,0-0.1-0.2-0.1
	c-0.3,0.5-0.5,0.9-0.5,1.2C105.7,110.6,105.9,110.7,106.2,110.6z M106.3,96.8c-0.1,0.2-0.2,0.5-0.3,0.8s-0.2,0.5-0.2,0.8
	c0,0.3,0,0.5,0.1,0.7c0.1,0.2,0.3,0.4,0.6,0.6c-0.1-0.5-0.2-0.8-0.2-1c0-0.2,0.1-0.4,0.1-0.5c0.1-0.1,0.1-0.2,0.2-0.2s0-0.2,0-0.3
	c0.5,0.3,0.7,0.3,0.7,0.1s-0.1-0.6-0.2-1.1C106.8,96.5,106.5,96.6,106.3,96.8z M106.8,95.3c0.1-0.5-0.1-0.9-0.5-1
	c0.1,0.6,0.2,1,0.2,1.2c0.1,0.2,0.3,0,0.7-0.5C107.1,95.2,107,95.3,106.8,95.3z M107.5,104c-0.1-0.3-0.2-0.7-0.4-1
	c-0.2-0.3-0.4-0.5-0.7-0.6c-0.1,0.2-0.1,0.5-0.1,0.8c0,0.3,0.1,0.6,0.1,0.8H107.5z M107.5,100.6l-0.3-0.4c-0.2,0.3-0.4,0.5-0.5,0.8
	c-0.1,0.3-0.1,0.5,0.1,0.9c0.1-0.1,0.1-0.1,0.2-0.1s0.1,0,0.2,0c0-0.2-0.1-0.5-0.2-0.8L107.5,100.6z M109.5,146.6
	c0.7,0.2,1.4,0.2,2.1,0c0.7-0.3,1.2-0.6,1.7-1.2c0.5-0.5,0.8-1.1,1-1.8c0.2-0.7,0.2-1.4,0.1-2.1c-0.2-0.9-0.5-1.9-0.9-2.9
	c-0.4-1-0.8-2-1.2-2.9c-0.4-1-0.8-2-1.3-2.9c-0.4-1-0.8-1.9-1.2-2.9c-0.1,0.2-0.2,0.3-0.2,0.4c0,0.1,0,0.2,0.1,0.3
	c0,0.1,0,0.2,0,0.3c0,0.1-0.1,0.2-0.2,0.4c-0.2,0.3-0.3,0.5-0.5,0.8c-0.1,0.3-0.3,0.6-0.4,0.9c-0.3,0.8-0.4,1.7-0.5,2.5
	c-0.1,0.9-0.1,1.7-0.1,2.5c0,0.6,0,1.3,0,2.1c0,0.8,0,1.5,0.1,2.3c0.1,0.8,0.2,1.5,0.4,2.2C108.8,145.4,109.1,146,109.5,146.6z
	 M108.8,112.5c0-0.4,0-0.8,0-1.2c0-0.4-0.2-0.7-0.6-1c0.1,0.4,0.1,0.8,0.2,1.2C108.5,111.9,108.6,112.3,108.8,112.5z M109,101.5
	c0,0.2,0,0.3-0.1,0.5s-0.1,0.3-0.1,0.5c0.2-0.1,0.3-0.3,0.4-0.5S109.3,101.6,109,101.5z M109,91.9c-0.1,0.5,0,1,0.4,1.4
	c0.1-0.3,0-0.6-0.1-0.9C109.1,92.2,109,92,109,91.9z M109.7,95.5c0-0.2-0.1-0.4-0.2-0.6c0,0.6,0.1,0.9,0.1,1.1c0,0.2,0,0.2,0.1,0.2
	c0,0,0.1-0.1,0.2-0.2c0.1-0.1,0.3,0,0.5,0.1c0-0.2,0.1-0.3,0.1-0.4c0-0.1,0-0.2,0-0.2s0-0.1-0.1-0.1c-0.1,0-0.1-0.1-0.1-0.3
	L109.7,95.5z M109.7,97c0,0.3,0,0.5-0.1,0.7c0,0.2-0.1,0.4-0.2,0.6c0.3-0.1,0.4-0.3,0.5-0.6C110,97.6,109.9,97.3,109.7,97z
	 M109.6,100.6c0.4-0.2,0.7-0.3,0.9-0.5c0.2-0.2,0.1-0.4-0.4-0.9c-0.2,0.2-0.3,0.5-0.3,0.7C109.7,100.1,109.7,100.4,109.6,100.6z
	 M110.6,120c-0.4,0-0.7-0.1-0.8-0.4c-0.2,0.4-0.1,0.8,0.2,1.3L110.6,120z M110.9,122.2c-0.3,0.3-0.3,0.6-0.2,0.9
	c0.2,0.3,0.3,0.6,0.4,1c0.2-0.1,0.4-0.3,0.6-0.5c0.2-0.2,0.3-0.4,0.4-0.7c-0.3-0.1-0.4-0.2-0.5-0.2c-0.1,0-0.1,0-0.2,0
	c0,0-0.1,0-0.1-0.1S111.1,122.4,110.9,122.2z M111.2,95.6c-0.1,0.3-0.1,0.5-0.2,0.7s-0.1,0.3-0.1,0.5s0.1,0.2,0.2,0.3s0.4,0,0.7-0.1
	c-0.1-0.1-0.2-0.3-0.3-0.7C111.4,95.9,111.3,95.7,111.2,95.6z M112.2,123.1c0.1,0.3,0.2,0.5,0.2,0.7c0,0.2,0,0.3,0,0.4
	c0,0.1,0.1,0.2,0.2,0.2c0.1,0.1,0.4,0.1,0.8,0.2c0.1-0.2,0-0.5-0.1-0.7c-0.2-0.2-0.3-0.4-0.4-0.6c-0.1-0.2-0.1-0.3-0.1-0.5
	c0.1-0.2,0.4-0.3,0.9-0.4c-0.1-0.1-0.3-0.2-0.5-0.3s-0.4-0.2-0.6-0.3c-0.1,0.5-0.1,1,0,1.6L112.2,123.1z M112.8,97.6
	c0,0.1,0,0.2,0,0.5s-0.1,0.6-0.2,1c0.4-0.1,0.6-0.2,0.7-0.2c0.1,0,0.2-0.1,0.2-0.1c0-0.1,0-0.2,0-0.3c0-0.2,0-0.4,0.1-0.8
	c-0.3,0-0.5,0-0.6-0.1s-0.2-0.1-0.3-0.1c0.1-0.1,0.1-0.2,0-0.3c-0.1-0.1-0.2-0.2-0.2-0.3c0,0.1,0,0.2-0.1,0.3c0,0.1-0.1,0.2-0.1,0.3
	H112.8z M113.9,100.1c-0.1-0.1-0.1-0.2-0.2-0.3c-0.1-0.1-0.1-0.1-0.1-0.1c0,0,0-0.1,0.1-0.2c0-0.1,0.1-0.2,0.3-0.4
	c-0.4-0.1-0.7,0-0.9,0.2c-0.2,0.2-0.3,0.5-0.4,0.9c0.3-0.4,0.6-0.6,0.7-0.6c0.1,0,0.2,0.1,0.3,0.3c0.1,0.2,0.1,0.3,0.1,0.4
	C113.8,100.5,113.8,100.4,113.9,100.1z M116.3,108.1c0.5-0.2,1-0.4,1.4-0.8c0.4-0.4,0.8-0.8,1.1-1.3c0.3-0.5,0.5-1,0.7-1.6
	c0.2-0.6,0.3-1.1,0.3-1.7c0-0.5-0.1-1-0.3-1.4c-0.2-0.5-0.4-0.8-0.8-1.1c-0.3-0.3-0.8-0.5-1.3-0.5c-0.5-0.1-1.1,0-1.8,0.2
	c-0.2,0.8-0.3,1.5-0.3,2.2c0,0.7,0,1.3,0.1,2c0.1,0.7,0.2,1.3,0.4,2C115.8,106.6,116,107.4,116.3,108.1z M116.2,99.2
	c0-0.2,0.1-0.3,0.2-0.4c0.1-0.1,0.1-0.1,0.1-0.2c0-0.1,0-0.1-0.1-0.3c-0.1-0.1-0.2-0.4-0.5-0.7c0,0.3,0,0.5,0,0.8
	c0,0.2,0,0.5-0.1,0.8H116.2z M116.4,91.5h0.5c0,0.4,0,0.7-0.1,0.9s0.1,0.5,0.3,0.8l0.3-1.6c-0.1,0-0.2,0-0.3-0.1
	c0.1,0,0.1,0,0.2-0.1c0,0,0.1,0,0.1-0.1c-0.1,0-0.1-0.1,0.2-0.4c-0.2-0.1-0.3-0.1-0.4-0.2s-0.2-0.2-0.4-0.2c0,0.3-0.1,0.6-0.3,0.8
	c0-0.2,0-0.3,0-0.5s0-0.3-0.1-0.5V91.5z M118.3,90.6c-0.1,0.3-0.2,0.5-0.2,0.7c0,0.2,0,0.4,0,0.7c0.3,0.1,0.4,0.1,0.5,0.2
	c0.1,0,0.1,0.1,0.2,0.1s0.1,0,0.2,0.1s0.2,0.1,0.5,0.2C119.3,91.7,118.9,91.1,118.3,90.6z M119.6,127.3c0.1-0.1,0.3-0.1,0.4-0.1
	s0.2,0.1,0.2,0.1c0.1,0,0.1,0,0.1-0.1c0-0.1-0.1-0.3-0.2-0.6C119.8,126.9,119.7,127.1,119.6,127.3z M120.2,93
	c0.4-0.2,0.6-0.4,0.6-0.5s-0.1-0.3-0.3-0.6c-0.1,0.1-0.2,0.1-0.3,0.1c-0.1-0.1-0.2-0.1-0.2-0.2c0.1,0.1,0.1,0.2,0.1,0.4
	S120.1,92.7,120.2,93z M120,104.3c0.1,0.3,0.1,0.5,0.2,0.8c0.1,0.3,0.1,0.5,0.2,0.8c0.1-0.4,0.1-0.8-0.1-1
	C120.2,104.7,120.1,104.5,120,104.3z M120.5,109.3c-0.1-0.1-0.1-0.2-0.1-0.3c0,0,0.1-0.1,0.1-0.1c0,0,0,0-0.1-0.1
	c-0.1-0.1-0.2-0.2-0.5-0.3C120,109.1,120.2,109.3,120.5,109.3z M122.9,92.4c-0.4,0.5-0.2,0.9,0.4,1.3c0.2-0.3,0.2-0.5,0.1-0.7
	C123.3,92.7,123.1,92.6,122.9,92.4z M124.2,145.3c0,0.7,0.2,1,0.6,1l-0.3-1H124.2z M125.4,145.1c0.1-0.2,0.1-0.3-0.1-0.4
	s-0.3-0.1-0.5-0.2c0,0.1,0.1,0.1,0.1,0.2s0,0.2,0,0.2s0,0.1,0.1,0.1S125.3,145.2,125.4,145.1z M127.2,143.2c-0.4,0.5-0.6,0.8-0.6,1
	c0,0.2,0.1,0.1,0.4-0.2L127.2,143.2z M128.5,126.5c-0.1,0-0.2,0.1-0.3,0.2c-0.1,0.2-0.2,0.3-0.3,0.4c-0.1-0.2-0.2-0.4-0.3-0.4
	s-0.2-0.1-0.3-0.1s-0.2-0.1-0.3-0.1s-0.1-0.2-0.2-0.4c-0.1,0.3-0.1,0.5-0.2,0.7c-0.1,0.2-0.1,0.4,0,0.6c0.4-0.4,0.7-0.6,0.9-0.4
	c0.2,0.2,0.4,0.5,0.6,1L128.5,126.5z M127.2,131.3c-0.1,0.1-0.3,0.3-0.4,0.4c-0.1,0.1-0.2,0.3-0.2,0.4c0,0.1,0,0.2,0.1,0.2
	c0.1,0,0.2,0,0.5-0.1V131.3z M126.7,139.7c0.1,0.3,0.1,0.7,0,1c0.1-0.2,0.2-0.3,0.3-0.4s0.1-0.3,0-0.6
	C126.8,139.8,126.7,139.7,126.7,139.7z M127.4,129c0.1-0.3,0.1-0.6,0-0.8c-0.1-0.3-0.2-0.5-0.4-0.8c0,0.2,0,0.4-0.1,0.6
	c0,0.2-0.1,0.4-0.2,0.6C126.9,128.8,127.1,129,127.4,129z M127.4,123.7c0.1-0.2,0.1-0.3,0-0.4c-0.1-0.1-0.3-0.1-0.5-0.2
	c0.1,0.1,0.1,0.1,0.1,0.2c0,0.1,0,0.2,0,0.2c0,0.1,0,0.1,0.1,0.2C127.1,123.8,127.2,123.8,127.4,123.7z M129.2,135.2
	c0.2-0.2,0.3-0.3,0.5-0.5c0.2-0.2,0.3-0.2,0.3,0c0.5-0.3,0.5-0.5,0.1-0.7c-0.2,0.4-0.4,0.6-0.6,0.8
	C129.4,135,129.3,135.1,129.2,135.2L129.2,135.2c-0.1,0-0.1,0-0.1,0.1c-0.1,0-0.1,0-0.2,0.1c0,0-0.1,0.1-0.2,0.1
	c0.2-0.4,0.1-0.8-0.2-1.3c-0.3,0.3-0.7,0.5-1.1,0.4c0,0.2,0.1,0.4,0.3,0.6c0.2,0.2,0.4,0.4,0.6,0.5s0.4,0.3,0.6,0.4
	c0.2,0.1,0.3,0.1,0.4,0c-0.1-0.2-0.1-0.4-0.1-0.6c0.1-0.1,0-0.2-0.2-0.1V135.2z M127.9,124.5c-0.2,0.2-0.3,0.4-0.3,0.6
	s0.2,0.4,0.5,0.5C128.5,125.2,128.4,124.9,127.9,124.5z M129,122.9c-0.4,0-0.8-0.2-1.1-0.6c0,0,0,0.2,0.1,0.4
	c0.1,0.2,0.2,0.5,0.3,0.8c0.1,0.3,0.2,0.5,0.3,0.8c0.1,0.2,0.1,0.3,0.1,0.4c0.1-0.2,0.2-0.4,0.4-0.6c0.2-0.2,0.3-0.4,0.3-0.6
	c0,0,0,0,0,0c-0.1,0-0.1,0.1-0.2,0.1s-0.2,0.1-0.2,0.1c-0.1,0-0.1,0.1-0.2,0.1L129,122.9z M129.2,122.2c0.4-0.3,0.6-0.7,0.6-1.1
	s-0.3-0.7-1-0.8c0.1,0.1,0.2,0.3,0.2,0.5s0.1,0.4,0.1,0.6c0,0.2,0,0.4,0,0.5S129.2,122.1,129.2,122.2z M132.3,124.5
	c0.1,0.1,0.2,0.2,0.2,0.3c0,0.2,0,0.3,0,0.5c0,0.2-0.1,0.4-0.1,0.6s-0.1,0.3-0.1,0.5c0.3-0.2,0.5-0.2,0.7-0.1
	c0.2,0.1,0.4,0.2,0.6,0.4c0.1-0.2,0.1-0.3,0.1-0.5c0-0.2-0.1-0.4-0.1-0.6c0-0.2,0-0.4,0-0.5s0.2-0.3,0.4-0.4
	c0.2-0.1,0.4-0.1,0.8-0.2s0.6-0.2,0.9-0.3c-0.1,0.5-0.2,0.8-0.2,0.9s-0.1,0.2-0.1,0.2s-0.1-0.1-0.2-0.2s-0.2-0.2-0.5-0.3
	c-0.1,0.2-0.1,0.5-0.1,0.8c0,0.3,0,0.6,0.1,0.8c0.5-0.4,0.8-0.8,1-1.3c0.2-0.5,0.3-0.9,0.2-1.3c-0.1-0.4-0.3-0.7-0.7-0.9
	c-0.4-0.2-0.9-0.2-1.6,0c-0.1-0.2-0.1-0.4-0.1-0.6s0-0.3,0-0.4s-0.1-0.1-0.2-0.1s-0.4,0.2-0.8,0.4c0.1-0.3,0-0.5-0.1-0.6
	c-0.1,0-0.3,0-0.5,0.1s-0.4,0.2-0.6,0.4s-0.4,0.2-0.4,0.3c0-0.1-0.1-0.2-0.2-0.3s-0.1-0.2,0-0.3c-0.5,0.2-0.8,0.4-0.9,0.6
	c-0.1,0.2-0.1,0.4-0.1,0.7c0,0.2,0,0.5,0,0.7c0,0.2-0.2,0.5-0.6,0.7c0.2,0.1,0.3,0.1,0.4,0.2s0.1,0.1,0.2,0.2s0.1,0.1,0.1,0.2
	s0.1,0.2,0.2,0.3c0-0.3,0-0.5,0.1-0.6c0.1-0.1,0.2-0.1,0.3-0.1s0.3,0.2,0.5,0.3s0.4,0.3,0.7,0.4v-0.7c0.1,0.4,0.4,0.7,0.8,0.8V124.5
	z M131.8,123.3c0.4-0.1,0.6-0.3,0.7-0.6c0.4,0.4,0.5,0.6,0.4,0.8C132.7,123.7,132.3,123.6,131.8,123.3z M132.9,120.4
	c-0.1,0.5,0.1,0.9,0.5,1.1c0-0.2,0.1-0.4,0.2-0.5C133.4,120.6,133.1,120.4,132.9,120.4z M133.6,127.1c-0.7,0.4-0.7,1.1-0.1,1.9
	c0.2-0.3,0.3-0.6,0.4-0.9C133.9,127.8,133.8,127.4,133.6,127.1z"/>
<path class="st0" d="M115.5,168.9c0.2,0.4,0.5,0.5,0.9,0.5c0.4,0,0.8-0.1,1.2-0.1c0.4-0.1,0.8-0.1,1.2,0c0.4,0.1,0.7,0.4,1,0.9
	c0.6-0.4,1.3-0.5,2-0.1c0.7,0.4,1.4,0.8,2.1,1.4c0.7,0.6,1.3,1.1,1.8,1.7c0.5,0.5,0.9,0.7,1,0.5c0,0.4,0.1,0.8,0.4,1.2
	c0.2,0.4,0.5,0.7,0.8,1.1c0.3,0.4,0.6,0.7,0.8,1.1c0.3,0.4,0.4,0.8,0.5,1.3c0.2,1.6,0.3,3.2,0.4,4.8c0,1.6,0.1,3.2,0.1,4.8
	c0,0.7-0.1,1.2-0.4,1.5s-0.5,0.4-0.9,0.5c-0.4,0.1-0.8,0.1-1.3,0.1c-0.5,0-0.9,0-1.4,0.1c-1.1,0.2-2.2,0.3-3.3,0.4
	c-1.1,0-2.2,0-3.3-0.1c-1,0-2-0.1-3.1-0.3c-0.2-0.7-0.2-1.4-0.2-2.2s0-1.5,0-2.2c0-1.3-0.3-2.4-0.9-3.4c-0.6-1-1.6-1.7-3-1.9
	c-0.4,0-0.8,0.1-1.4,0.4c-0.6,0.3-1.1,0.7-1.6,1.1c-0.5,0.4-0.8,0.9-1.1,1.4c-0.3,0.5-0.2,0.9,0,1.2c0.2,0.1,0.3,0.2,0.3,0.5
	c0,0.3,0,0.5,0,0.8c0,0.3-0.1,0.6-0.1,0.8c-0.1,0.3-0.1,0.4-0.1,0.5c0.2,0.1,0.4,0.2,0.5,0.3c0.1,0.1,0.2,0.2,0.3,0.4
	s0.1,0.3,0.1,0.5s0.1,0.3,0.2,0.5c0.2-0.3,0.3-0.4,0.3-0.2c0.1,0.2,0.2,0.2,0.5,0.2v0.5h-0.6c0.1,0.3,0.3,0.5,0.6,0.8
	c0.1-0.2,0.3-0.4,0.5-0.6c0.2,0.2,0.4,0.4,0.5,0.7s0.2,0.6,0.3,0.9c-0.3-0.1-0.5-0.1-0.4,0c0.1,0.1,0.1,0.4,0.2,0.8h0.3
	c-0.1-0.4,0-0.6,0.3-0.7c0.1,0.2,0.3,0.3,0.4,0.4c0.2,0.1,0.3,0.1,0.4,0.2c0.1,0.1,0.2,0.2,0.3,0.3c0.1,0.1,0.2,0.3,0.2,0.6
	c0.2-0.2,0.4-0.2,0.7,0c0.3,0.2,0.6,0.4,0.9,0.7c0.3,0.3,0.6,0.6,0.9,0.9c0.3,0.3,0.5,0.5,0.7,0.7c0.2-0.1,0.4,0,0.6,0.3
	c0.2,0.3,0.3,0.7,0.5,1s0.3,0.7,0.5,0.9c0.2,0.2,0.5,0.2,0.8-0.1c0,0.3,0,0.6,0.1,0.8s0.2,0.4,0.5,0.5c-0.2-0.2-0.2-0.4-0.1-0.6
	c0.2,0.3,0.4,0.5,0.6,0.6c0.2,0.1,0.3,0.3,0.2,0.8c0.3-0.2,0.7-0.1,1.2,0.2c0.5,0.4,1,0.8,1.6,1.3c0.6,0.5,1.1,1.1,1.6,1.6
	c0.5,0.6,0.9,0.9,1.2,1.1c0.4,0.3,0.8,0.7,1.2,1.3c0.4,0.6,0.8,1.2,1.1,1.8c0.3,0.6,0.6,1.2,0.8,1.8c0.2,0.6,0.2,1,0.1,1.2
	c0.4,0.2,0.8,0.6,1.1,1.4c0.3,0.7,0.5,1.6,0.6,2.4c0.1,0.9,0.2,1.8,0.2,2.7c0,0.9-0.1,1.6-0.2,2c-0.2,0.9-0.2,1.7-0.1,2.6
	c0.1,0.9,0.1,1.7-0.1,2.4c-0.2,0.6-0.2,1.2-0.1,1.8c0.1,0.6,0.1,1.1,0,1.6c-0.3,1.8-0.9,3.6-1.8,5.3c-0.9,1.7-2,3.2-3.4,4.4
	c-0.6,0.5-1.2,0.9-1.9,1.2s-1.4,0.5-2.2,0.6c-0.5,0.1-0.9,0.2-1.1,0.2s-0.3,0-0.4-0.1s-0.2-0.1-0.3-0.3s-0.3-0.3-0.6-0.6
	c0.1,0.5,0.2,0.9,0.2,1.1c0,0.2-0.1,0.3-0.2,0.3c-0.1,0-0.2-0.1-0.4-0.3c-0.2-0.2-0.3-0.4-0.5-0.6c0,0.4-0.1,0.7-0.4,1
	c-0.3,0.3-0.7,0.5-1.3,0.7c-0.5,0.2-1.1,0.3-1.8,0.4c-0.7,0.1-1.4,0.1-2.1,0.1c-0.6,0-1.2,0-1.7-0.1c-0.5-0.1-1-0.1-1.4-0.2
	c-0.4-0.1-0.8-0.2-1-0.3s-0.4-0.2-0.4-0.4c0-0.9,0.3-1.4,0.8-1.7c0.5-0.3,1.2-0.4,2-0.4c0.6,0,1.1,0,1.7,0.1
	c0.6,0.1,1.1,0.1,1.6,0.2c-0.1-0.2-0.4-0.4-0.8-0.4c-0.4-0.1-0.8-0.1-1.3-0.1c-0.5,0-1,0-1.6,0.1c-0.5,0-1,0-1.4-0.1
	c-0.4-0.1-0.7-0.3-0.9-0.5c-0.2-0.3-0.2-0.6,0-1.2c-0.1,0.1-0.1,0.2-0.2,0.3c-0.1,0.1-0.2,0.2-0.4,0.2c0.1-0.4,0.1-0.8-0.2-1.2
	c-0.3-0.4-0.6-0.7-1-1c-0.4-0.3-0.9-0.5-1.3-0.7c-0.5-0.2-0.8-0.2-1-0.2c0.2,0.5,0.3,1,0.2,1.5c-0.2-0.4-0.5-0.7-0.8-0.8l0.3,0.7
	c-0.1,0.1-0.2,0.1-0.3,0.1s-0.2-0.1-0.3-0.1v0.1c0,0,0,0.1-0.1,0.1c-0.2,0-0.3-0.1-0.2-0.4c-0.2-0.1-0.4-0.1-0.5-0.2
	c-0.1-0.1-0.2-0.1-0.3-0.1c-0.1,0-0.1,0.1-0.1,0.3s0.1,0.5,0.3,0.9l-0.5-0.4c-0.1,0.5-0.2,0.9-0.3,1.4s-0.2,0.9-0.3,1.4
	c-0.4-0.1-0.9-0.3-1.5-0.6c-0.6-0.3-1.2-0.6-1.7-1c-0.5-0.4-0.9-0.9-1.3-1.4c-0.3-0.5-0.4-1.1-0.3-1.8c-0.6,0-1.1-0.3-1.3-0.8
	c-0.2-0.5-0.3-1.2-0.3-1.9c0-0.5,0-1.1,0.1-1.7c0.1-0.6,0.1-1.2,0.2-1.8c0.1-0.6,0.1-1.1,0.2-1.5c0.1-0.4,0.1-0.7,0.1-0.9
	c-0.3,0.2-0.4,0.2-0.5,0.1c-0.1-0.1-0.1-0.2-0.1-0.4s0-0.4,0.1-0.6c0-0.2,0-0.4-0.1-0.6c0.4-0.1,0.6-0.1,0.6-0.2s-0.1-0.3-0.2-0.8
	c-0.2,0.1-0.4,0-0.5-0.4c-0.1-0.3-0.2-0.8-0.2-1.3c0-0.6,0-1.2,0-1.9s0.1-1.4,0.2-2.1c0.1-0.7,0.2-1.3,0.3-1.8
	c0.1-0.5,0.2-0.9,0.4-1.1c0.2-0.3,0.5-0.5,1-0.7c0.5-0.2,1-0.3,1.7-0.4c0.6-0.1,1.3-0.2,2.1-0.2c0.8-0.1,1.5-0.1,2.3-0.1
	c1.2,0,2.3,0,3.4,0.1s1.9,0.1,2.4,0.1c0.2,0.3,0.3,0.8,0.3,1.7s0.1,1.9,0.1,3.1c0,1.2,0.1,2.4,0.2,3.7c0.1,1.3,0.2,2.5,0.5,3.6
	c0.2,1.1,0.5,2,0.9,2.7c0.4,0.7,1,1.1,1.7,1.1c0.4,0,0.8-0.1,1.2-0.3c0.4-0.2,0.9-0.5,1.5-1c0.4-0.3,0.7-0.7,0.9-1.1
	s0.5-0.9,0.6-1.3c0.2-0.5,0.3-0.9,0.3-1.4c0.1-0.5,0.1-0.9,0.1-1.4c0-1.4-0.3-2.7-0.8-4.1c-0.6-1.4-1.2-2.5-1.8-3.4
	c-0.6-0.8-1.3-1.6-2-2.3c-0.7-0.7-1.5-1.4-2.3-2.1c-0.8-0.7-1.5-1.3-2.3-2s-1.5-1.3-2.2-2.1c-0.9-0.9-1.7-1.8-2.4-2.6
	c-0.8-0.8-1.4-1.7-1.9-2.9c-0.1-0.3-0.3-0.5-0.4-0.5s-0.2-0.1-0.3,0c-0.1,0-0.2,0.1-0.3,0.1c-0.1,0-0.2,0-0.3-0.2
	c-0.3-0.3-0.5-0.6-0.7-0.9c-0.2-0.3-0.4-0.7-0.7-1c-0.2-0.2-0.4-0.7-0.6-1.4c-0.2-0.7-0.5-1.4-0.7-2.3c-0.3-0.9-0.5-1.8-0.7-2.7
	c-0.2-1-0.4-1.8-0.6-2.6c-0.2-0.8-0.2-1.4-0.3-1.9c0-0.5,0-0.7,0.2-0.7c-0.3-0.6-0.5-1.2-0.5-1.9c0-0.7,0.1-1.4,0.3-2.1
	c0.2-0.7,0.4-1.4,0.7-2.1c0.3-0.7,0.5-1.3,0.8-1.9c0.2-0.6,0.4-1.1,0.7-1.7c0.3-0.6,0.5-1.1,0.8-1.6c0.4,0.1,0.6,0.2,0.6,0.4
	c0.1,0.2,0.1,0.5,0.1,0.8s0,0.6,0.1,0.9c0,0.3,0.2,0.6,0.5,0.8c0-0.3,0-0.6,0-1c-0.1-0.4-0.1-0.7-0.1-1.1c0-0.4,0-0.7,0.1-1
	s0.2-0.6,0.4-0.9c0.6-0.7,1.3-1.3,2.1-1.9c0.8-0.5,1.7-0.9,2.5-1.1c0.1,0.5,0.1,1.1,0.1,1.7c0,0.6-0.1,1.1-0.3,1.6
	c-0.1-0.2-0.2-0.4-0.3-0.4c-0.2,0-0.3,0.1-0.3,0.2s0,0.2,0.1,0.3c0.1,0.1,0.3,0.1,0.7,0.1c-0.1,0.2-0.3,0.4-0.5,0.7
	c-0.2,0.3-0.4,0.6-0.5,0.9c-0.1,0.3-0.1,0.5-0.1,0.6c0.1,0.2,0.3,0.1,0.7-0.1c0.1,0.1,0.1,0.2,0,0.4c-0.1,0.1-0.2,0.3-0.3,0.4
	c0.4-0.1,0.6-0.1,0.7-0.1c0.1,0,0.1,0,0.1,0.1c0,0.1-0.1,0.1-0.1,0.3s0,0.3,0.1,0.4c0.3-0.3,0.7-0.6,1.2-0.9
	c0.5-0.3,0.9-0.6,1.4-0.8c0,0.2-0.1,0.4-0.1,0.4s-0.1,0.1-0.1,0.1c0,0,0,0.1,0.1,0.2c0.1,0.1,0.1,0.3,0.3,0.6
	c0.2-0.1,0.3-0.3,0.4-0.6c0.1-0.3,0.1-0.6,0.2-1s0-0.7-0.1-1s-0.1-0.6-0.1-0.8c0.5,0.2,0.9,0.2,1.1,0c0.2-0.2,0.4-0.4,0.5-0.7
	c0.1-0.3,0.1-0.6,0.1-1c0-0.4,0-0.7,0.1-1s0.2-0.5,0.4-0.6s0.5-0.1,0.9,0.1c-0.1-0.5,0-0.8,0.1-0.9s0.4-0.1,0.7,0
	c0.3,0.1,0.6,0.2,0.9,0.3c0.3,0.1,0.6,0.1,0.8,0c0.5-0.2,0.9-0.3,1.1-0.3c0.2,0,0.4,0.1,0.6,0.2c0.2,0.1,0.4,0.3,0.6,0.5
	c0.2,0.2,0.5,0.3,0.9,0.3L115.5,168.9z M97.7,228.6c0.3-0.3,0.1-0.5-0.4-0.7C97.2,228.3,97.3,228.5,97.7,228.6z M97.9,221.7
	c0.1-0.1,0.2-0.2,0.2-0.3c0-0.1,0-0.2-0.1-0.3c-0.1-0.1-0.2,0-0.3,0c-0.1,0.1-0.2,0.2-0.3,0.5C97.8,221.5,97.9,221.5,97.9,221.7z
	 M99.1,185.8c0.2-0.4,0.3-0.7,0.4-0.9c0.1-0.2-0.1-0.4-0.7-0.6c0.1,0.2,0.1,0.4,0.1,0.7C99,185.3,99,185.6,99.1,185.8z M98.9,233.5
	c0.7-0.1,0.8-0.4,0.2-0.9L98.9,233.5z M99.8,176.3c0-0.1,0.1-0.3,0.2-0.6c-0.1,0-0.2,0-0.3,0s-0.2,0-0.3-0.1
	c0.1,0.3,0.1,0.4,0.1,0.5c-0.1,0.1-0.2,0-0.4-0.1C99.2,176.4,99.4,176.5,99.8,176.3z M101.3,232.1c0,0-0.1-0.2-0.1-0.4
	s-0.1-0.4-0.1-0.6c-0.1-0.2-0.1-0.4-0.2-0.7s-0.1-0.4-0.2-0.4c0,0.1-0.1,0.4-0.1,0.7c0,0.3,0,0.6,0,0.9c0,0.3,0.1,0.5,0.2,0.6
	S101.1,232.3,101.3,232.1z M101.3,185.5c0.1,0.1,0.2,0.1,0.3,0.2c0.1,0.1,0.2,0.1,0.3,0.1c-0.1-0.2-0.1-0.3-0.1-0.4
	c0-0.1,0-0.1-0.1-0.1c0,0-0.1,0-0.1,0c-0.1,0-0.2,0-0.3-0.1c-0.1,0.2-0.1,0.3-0.2,0.5s-0.1,0.4-0.1,0.6L101.3,185.5z M101.4,195.8
	c0.2-0.3,0.2-0.5,0-0.8c-0.2,0.3-0.3,0.4-0.3,0.5c0,0.1,0,0.1,0,0.1c0,0,0.1,0,0.2,0C101.3,195.6,101.4,195.7,101.4,195.8z
	 M101.8,172.5c0-0.6-0.2-1-0.7-1.2C101,172.1,101.2,172.5,101.8,172.5z M101.9,190.9c0.2-0.3,0.2-0.6,0-1c-0.2-0.4-0.4-0.7-0.7-0.9
	c-0.1,0.1-0.1,0.3-0.2,0.6s0,0.5,0,0.7s0.1,0.5,0.2,0.7c0.1,0.2,0.2,0.4,0.4,0.5c0-0.1,0-0.2,0.1-0.3S101.9,191,101.9,190.9z
	 M102.9,175.8c-0.1,0.3-0.1,0.6,0,0.8s0.2,0.4,0.5,0.6c0.1-0.5,0.1-0.8,0-1C103.4,176.1,103.2,175.9,102.9,175.8z M103.5,190.6
	c-0.4,0.4-0.6,0.9-0.5,1.4c0.1,0,0.3-0.1,0.4-0.2c0.2-0.1,0.3-0.2,0.4-0.4c0.1-0.1,0.1-0.3,0.1-0.4
	C103.8,190.9,103.7,190.7,103.5,190.6z M104.3,194.5c0.2-0.6,0.1-1.2-0.2-1.9c-0.3,0.6-0.3,1-0.2,1.2
	C104,194,104.1,194.2,104.3,194.5z M104.7,233.8c-0.2-0.1-0.4-0.1-0.5-0.1c-0.1,0-0.2,0-0.2,0c0,0,0-0.1,0-0.2s0.1-0.4,0.2-0.7
	c0.1,0.1,0.2,0.2,0.3,0.2c0.1,0,0.1,0.1,0.1,0.1s0,0.1,0,0.2S104.7,233.5,104.7,233.8z M104.2,173c0.1-0.3,0.2-0.5,0.4-0.6
	s0.3-0.1,0.5-0.2s0.4-0.1,0.6-0.1c0.2,0,0.4-0.2,0.7-0.4c0,0.3,0,0.6-0.1,0.8c-0.1,0.2-0.3,0.3-0.5,0.4c-0.2,0.1-0.5,0.1-0.7,0.1
	S104.4,173,104.2,173z M104.9,190.9c0.3-0.3,0.2-0.8-0.1-1.3c-0.1,0.1-0.2,0.3-0.3,0.5s-0.2,0.4-0.2,0.6c0,0.2,0,0.3,0.1,0.4
	C104.5,191.1,104.6,191,104.9,190.9z M105,183.2c-0.1,0.4-0.2,0.6-0.3,0.7s0,0.3,0.3,0.4V183.2z M104.9,171c0.3-0.5,0.4-1,0.2-1.5
	c0.4,0.3,0.7,0.6,0.8,1c0.1,0.3,0,0.6-0.4,0.8L104.9,171z M106,195.7c0.2-0.3,0.1-0.4-0.5-0.3c-0.1,0.3,0,0.4,0.1,0.3
	C105.7,195.6,105.8,195.6,106,195.7z M106.1,182.6c-0.2-0.1-0.3-0.2-0.3-0.2s-0.1,0.1,0,0.2c0,0.1,0.1,0.2,0.1,0.4s0.1,0.2,0.1,0.3
	C106.5,182.9,106.6,182.7,106.1,182.6z M106.6,176.9c-0.2,0.3-0.3,0.4-0.4,0.5c-0.1,0.1-0.1,0.1-0.1,0.1c0,0,0.1,0,0.1,0
	c0.1,0,0.1,0.1,0,0.2c0.1,0,0.1,0.1,0.2,0.3c0.1,0.2,0.1,0.4,0.2,0.5s0.1,0.1,0.1-0.1S106.6,177.7,106.6,176.9z M109.7,192.3
	c0.2,0.2,0.3,0.2,0.3,0.1s0.1-0.3,0-0.5c-0.1-0.2-0.2-0.3-0.3-0.5c-0.2-0.1-0.3-0.1-0.5,0c0.1-0.3,0.1-0.5-0.1-0.7
	c-0.2,0.3-0.3,0.5-0.4,0.7c-0.1,0.1-0.2,0.2-0.3,0.3c-0.1,0.1-0.2,0.1-0.3,0.2c-0.1,0.1-0.2,0.2-0.4,0.4c-0.1,0.3-0.1,0.5,0,0.7
	c0.1,0.2-0.1,0.4-0.5,0.6c0.1-0.1,0.2-0.1,0.4-0.1c0.1,0,0.3,0.1,0.4,0.2c-0.1,0.4-0.2,0.7-0.3,0.9s-0.2,0.5-0.3,0.9
	c0.3-0.1,0.6-0.2,0.8-0.3c0.3-0.1,0.4-0.1,0.6-0.1c0.1,0,0.2,0.1,0.2,0.3c0,0.2-0.2,0.4-0.4,0.8c0.2-0.1,0.4-0.1,0.5,0
	s0.1,0.3,0.1,0.6s0,0.5,0,0.8s0.1,0.5,0.3,0.7c0.3-0.2,0.5-0.3,0.6-0.4c0.1-0.1,0.2-0.3,0.3-0.6c-0.3,0.1-0.5,0.2-0.5,0.1
	s-0.1-0.2,0-0.4s0.1-0.3,0.2-0.5c0.1-0.2,0.1-0.3,0.1-0.4c0.4,0.2,0.6,0.2,0.6,0.1c-0.1-0.1,0-0.3,0.1-0.6c0.1,0.2,0.2,0.3,0.2,0.5
	s0,0.4,0.1,0.5s0.1,0.3,0.2,0.5c0.1,0.2,0.2,0.3,0.5,0.4c-0.1-0.2-0.1-0.4-0.2-0.6s-0.1-0.4-0.1-0.6s0-0.3,0.1-0.4
	c0.1-0.1,0.2-0.1,0.4,0.1c-0.3-0.4-0.4-0.6-0.4-0.7c0-0.1,0.2-0.2,0.6-0.2c-0.2-0.3-0.3-0.4-0.4-0.3c-0.1,0.1-0.2,0.1-0.4,0.2
	l-0.9-1.4h0.4L109.7,192.3z M108,205.1c0.1-0.2,0.1-0.3,0.2-0.5s0.1-0.4,0.3-0.5c-0.1,0-0.2,0.1-0.4,0.3c-0.1,0.2-0.2,0.3-0.3,0.5
	c-0.1,0.2-0.1,0.3-0.1,0.4C107.7,205.2,107.8,205.2,108,205.1z M108.4,197.2c0.1-0.3,0-0.6-0.4-0.8c0,0.1,0,0.1-0.1,0.1
	c-0.1,0-0.1,0-0.2,0.1L108.4,197.2z M108.1,224.8c-0.4,0.7-0.4,1.1,0,1.1V224.8z M109,189.6c0.1,0.5,0.2,0.9,0.4,1
	c0.2,0.2,0.4,0,0.6-0.4L109,189.6z M109.6,179.6c0.1-0.2,0.1-0.4,0.1-0.5c0-0.1-0.2-0.2-0.4-0.3
	C109.1,179.2,109.2,179.4,109.6,179.6z M110.3,192.3c0.1,0,0.2,0,0.2,0.1c0,0.1-0.1,0.2-0.1,0.2c0,0.1,0,0.1,0.1,0.1
	c0.1,0,0.3-0.1,0.7-0.3c0,0.3,0.1,0.6,0.3,0.9c0.2-0.2,0.2-0.4,0.2-0.6c0-0.2-0.1-0.3-0.3-0.4c-0.2-0.1-0.3-0.2-0.5-0.2
	S110.5,192.2,110.3,192.3z M111.6,199.5c0-0.1,0.1-0.3,0.2-0.4c0.1-0.1,0.2-0.3,0.3-0.4c0.1-0.1,0.1-0.2,0.2-0.4
	c0-0.1-0.1-0.3-0.3-0.4c0,0.2-0.1,0.4-0.2,0.5c-0.1,0.1-0.2,0.2-0.3,0.3c-0.1,0.1-0.2,0.2-0.2,0.3
	C111.2,199.1,111.4,199.3,111.6,199.5z M114.1,236.9c0.2,0,0.4-0.1,0.6-0.3c-0.2-0.1-0.3-0.2-0.4-0.2c-0.1,0-0.1,0-0.1,0.1
	c0,0.1,0,0.1-0.1,0.2C114.1,236.7,114.1,236.8,114.1,236.9z M115.6,171.6c0.1-0.3,0.1-0.6-0.1-0.9c0,0.1-0.1,0.2-0.1,0.4
	c-0.1,0.2-0.1,0.3-0.1,0.4s0,0.2,0,0.2S115.5,171.7,115.6,171.6z M117.2,211c-0.1,0.1-0.2,0.2-0.2,0.3s0.1,0.2,0.3,0.3
	c0-0.2,0-0.3,0.1-0.3c0.1,0,0.2,0,0.3,0.2c0-0.3,0-0.5-0.2-0.4C117.4,211.1,117.3,211.1,117.2,211z M118.4,214
	c-0.1-0.2-0.1-0.3-0.2-0.4c-0.1-0.1-0.2-0.1-0.3-0.2c0,0.3,0.1,0.4,0.1,0.5c0,0.1,0.1,0.1,0.1,0.1s0.1,0,0.1-0.1
	C118.3,214,118.3,214,118.4,214z M118.4,169.6c0,0.3,0.1,0.5,0.1,0.6c0,0.1,0,0.2,0.1,0.2c0,0.1,0,0.1,0.1,0.2c0,0.1,0,0.2,0,0.4
	c-0.2-0.2-0.3-0.2-0.5,0c0.3,0.1,0.5,0.1,0.7,0.1c0.1,0,0.2-0.1,0.3-0.2s0-0.3,0-0.5c0-0.2-0.1-0.5-0.1-0.8H118.4z M119.1,184.5
	c0.1-0.4,0.1-0.7,0.1-1.1c0-0.3-0.2-0.6-0.6-0.9c0.1,0.5,0.1,0.9,0.1,1.2C118.7,184.1,118.9,184.3,119.1,184.5z M120.1,182.4
	c-0.1,0.2-0.1,0.4,0.1,0.6C120.5,182.5,120.5,182.3,120.1,182.4z M121.4,182.2c-0.1,0.4-0.2,0.6-0.3,0.8c-0.1,0.2-0.2,0.3-0.2,0.4
	c0,0.1,0,0.2,0.1,0.4c0.1,0.1,0.3,0.3,0.6,0.6c0-0.5,0.1-0.8,0.2-1.1C121.7,183,121.6,182.7,121.4,182.2z M127.9,181.3
	c-0.3,0.1-0.4,0.2-0.5,0.1s-0.2,0-0.5,0c0.2-0.2,0.4-0.4,0.5-0.4s0.3-0.1,0.6-0.2c-0.1-0.1-0.2-0.2-0.4-0.3
	c-0.2-0.1-0.3-0.2-0.5-0.4c-0.6,0.6-1.1,0.9-1.3,1c-0.2,0-0.4-0.1-0.5-0.3c-0.1-0.2-0.2-0.5-0.3-0.8c-0.1-0.3-0.4-0.5-0.8-0.6
	c0.1,0.1,0.2,0.3,0.3,0.6c0.1,0.3,0.2,0.6,0.2,0.8c0,0.3,0,0.4-0.2,0.6c-0.1,0.1-0.4,0-0.7-0.2c0.3,0.3,0.4,0.6,0.4,0.8
	c0,0.2-0.1,0.6-0.2,1.1c-0.2-0.1-0.3-0.2-0.3-0.4c0-0.2-0.1-0.3-0.4-0.5c-0.2,0.3-0.4,0.5-0.4,0.6s-0.1,0-0.1,0c0-0.1,0-0.2,0-0.3
	s-0.1-0.1-0.2-0.1c-0.2,0.1-0.3,0.4-0.3,0.7c0,0.3,0,0.6,0.1,1c0.1,0.4,0.2,0.7,0.3,1c0.1,0.3,0.3,0.5,0.4,0.7l0.5-0.6l0.5,0.3
	c-0.1-0.1-0.1-0.2-0.2-0.3s-0.1-0.1-0.2-0.1c0.3-0.2,0.5-0.3,0.8-0.2c0.2,0.1,0.6,0.2,1.2,0.3c-0.1-0.2,0-0.3,0.2-0.3
	c0.2,0.2,0.4,0.5,0.6,1c0.2,0.4,0.4,0.8,0.6,1.1c0.1-0.4,0.4-0.5,0.8-0.3c-0.1,0.1-0.1,0.2,0.1,0.4c0.5-0.2,0.4-0.5-0.4-0.8
	c0.4,0.1,0.7,0.1,0.7,0s0-0.2-0.2-0.4c-0.2-0.2-0.3-0.4-0.6-0.6c-0.2-0.2-0.4-0.3-0.5-0.5c0,0,0-0.2,0.1-0.5s0.2-0.6,0.3-0.9
	c0.1-0.3,0.2-0.5,0.2-0.7s0-0.1-0.1,0.3c0.2-0.1,0.3-0.2,0.5-0.3c0.1-0.1,0.2-0.3,0.3-0.5c-0.1,0-0.3-0.1-0.5-0.3l-0.3-0.3h0.4
	V181.3z M122.7,230.1c0.1,0,0.2,0,0.3,0s0.2-0.1,0.4-0.2c0.1-0.2,0.1-0.3,0-0.4s-0.2-0.1-0.3,0L122.7,230.1z M122.8,175.3
	c-0.1,0.4,0,0.9,0.2,1.5c0.4,0,0.6-0.3,0.5-0.8L122.8,175.3z M123,175.1c0.2-0.2,0.3-0.4,0.3-0.5s0-0.2-0.1-0.2s-0.1-0.1-0.2-0.1
	s-0.1,0-0.2-0.1c-0.1,0.2-0.1,0.4-0.1,0.5S122.8,175,123,175.1z M123.7,211.7c0.2,0.4,0.3,0.7,0.4,0.9c0.1,0.1,0.1,0.2,0.1,0.2
	c0,0-0.1,0-0.3-0.1c-0.1-0.1-0.3,0-0.5,0c0,0.3,0,0.4,0,0.5s0.1,0.1,0.2,0.1c0.1,0,0.2,0,0.4-0.1c0.2-0.1,0.4-0.2,0.6-0.2
	c-0.4-0.3-0.5-0.7-0.4-1.3H123.7z M124.3,216c0,0.3,0,0.6,0.1,0.9c0.1,0.3,0.2,0.6,0.4,0.8c0.2-0.1,0.3-0.3,0.4-0.6s0.1-0.5,0.1-0.6
	c-0.1,0.1-0.1,0.2-0.2,0.2s-0.1,0-0.2,0V216H124.3z M124.6,221.6c-0.1,0.2-0.1,0.4-0.1,0.6c0,0.2,0.1,0.4,0.2,0.6
	c0.1-0.1,0.1-0.4,0.1-0.7C124.7,222,124.6,221.8,124.6,221.6z M126.1,210.2c0.1-0.6,0-1.1-0.3-1.5c0,0.1,0,0.3-0.1,0.5
	c0,0.3-0.1,0.5-0.1,0.7s0,0.4,0.1,0.5S126,210.5,126.1,210.2z M125.9,178.9c0,0.1,0,0.2-0.1,0.4c0,0.2-0.1,0.3-0.1,0.4
	c0.3,0,0.6-0.1,0.7-0.1c0.1,0,0.2,0,0.2-0.1c0,0,0-0.1-0.1-0.2s0-0.3,0-0.5c-0.1,0-0.2,0-0.4,0.1C126.1,179,126,179,125.9,178.9z
	 M127.3,179c-0.3,0.2-0.5,0.6-0.6,1.1c0.5,0.1,0.9,0,1-0.2S127.8,179.4,127.3,179z M128,218.9c0.4,0,0.6-0.1,0.7-0.2s0-0.3-0.4-0.6
	L128,218.9z"/>
<path class="st0" d="M167.1,207.2c0.4,0.6,0.7,1.2,0.9,1.9c0.1,0.7,0.2,1.4,0.2,2.1c0,0.8-0.1,1.7-0.2,2.5c-0.1,0.9-0.2,1.7-0.3,2.4
	c-0.2,1.4-0.2,2.9-0.1,4.4c0.1,1.5,0.2,3,0.1,4.5c-0.2,3.1-0.9,5.6-2.2,7.6c-1.2,2-3.2,3.7-5.8,5.3c-0.8,0.5-1.8,0.8-2.7,1
	c-1,0.2-2,0.4-3,0.4c-1,0.1-2,0.1-3.1,0.1c-1,0-2,0-2.9,0.1c-1,0-2-0.1-2.9-0.4c-1-0.3-1.9-0.6-2.7-1.1c-0.9-0.4-1.7-0.9-2.4-1.5
	c-0.7-0.6-1.4-1.1-2-1.7c-1-0.9-1.7-1.9-2.3-3.1c-0.6-1.1-1-2.4-1.3-3.6c-0.3-1.3-0.5-2.6-0.6-4c-0.1-1.4-0.1-2.8-0.1-4.1
	c0-1.1,0-2.3,0.1-3.4c0-1.1,0.1-2.2,0.1-3.2c0-2.1-0.1-4.2-0.2-6.3c-0.1-2.1-0.2-4.2-0.2-6.3c0-1.9,0.1-3.8,0.2-5.7
	c0.1-1.9,0.4-3.8,0.9-5.7c0.4-1.9,1.1-3.5,2.1-4.8c1-1.3,2.2-2.4,3.6-3.2c1.4-0.8,2.9-1.4,4.6-1.8c1.7-0.4,3.4-0.6,5.1-0.6
	c1.2,0,2.4,0.1,3.6,0.2c1.2,0.2,2.3,0.4,3.4,0.7c1.8,0.5,3.5,1.2,4.9,2.2c1.5,1,2.6,2.4,3.5,4.1c0.3,0.6,0.7,1.5,1.1,2.6
	c0.4,1.1,0.7,2.2,0.9,3.3c0.2,1.1,0.3,2.2,0.3,3.2c0,1-0.3,1.8-0.7,2.3c0,0.2,0.2,0.2,0.6,0c-0.3,0.6-0.6,1.2-0.8,1.6
	c-0.2,0.5-0.2,1-0.1,1.8c-0.1-0.1-0.3-0.3-0.5-0.6c-0.2-0.3-0.3-0.6-0.4-0.9c-0.1-0.3-0.2-0.5-0.2-0.7c0-0.2,0.1-0.2,0.3-0.1
	c0.1,0.1,0.1,0,0.2-0.2c0.1-0.2,0.1-0.4,0.1-0.6c0-0.2-0.1-0.3-0.3-0.4s-0.4-0.1-0.7,0.1c0.1-0.3,0.2-0.5,0.2-0.6
	c0-0.1-0.1-0.1-0.2,0c-0.1,0.1-0.2,0.2-0.3,0.3c-0.1,0.1-0.2,0.3-0.3,0.4c0-0.6,0-1.1-0.1-1.3c-0.1-0.2-0.4-0.4-0.9-0.6
	c-0.2,0-0.4-0.1-0.4-0.3c-0.1-0.2-0.1-0.4,0-0.6c0-0.2,0.1-0.4,0.1-0.7c0-0.2,0-0.5-0.1-0.7c0,0.2-0.1,0.5-0.2,0.8
	c-0.2,0.3-0.2,0.6-0.2,0.9c-0.4-0.1-0.7-0.1-0.9-0.1c-0.2,0.1-0.3,0.3-0.4,0.8c-0.3-0.1-0.5-0.3-0.5-0.6c0-0.3,0.2-0.6,0.4-1
	s0.4-0.7,0.7-1c0.2-0.3,0.4-0.6,0.5-0.7c-0.2,0.1-0.4,0.2-0.5,0.3s-0.2,0.1-0.3,0.2c-0.1,0.1-0.2,0.1-0.3,0.2
	c-0.1,0.1-0.2,0.2-0.3,0.4c0,0,0-0.1-0.1-0.3c0-0.2-0.1-0.3-0.1-0.5c-0.1-0.2-0.1-0.4-0.2-0.6s-0.1-0.3-0.1-0.4
	c-0.2,0.5-0.5,0.7-0.9,0.6c0.5,0.5,0.8,0.8,0.7,0.9s-0.5,0-1.3-0.2c0.1,0.2,0.2,0.3,0.2,0.4c0,0.1,0,0.2-0.1,0.2s-0.1,0.1-0.2,0.2
	c-0.1,0.1-0.1,0.2-0.2,0.4c-0.3-0.1-0.4-0.3-0.4-0.5s0.1-0.5,0.2-0.8l0.4-0.9c-0.1-0.1-0.3-0.1-0.4-0.1v1c-0.2,0-0.4,0-0.5,0.1
	c-0.1,0.1-0.2,0.3-0.2,0.5c0,0.2,0,0.4,0,0.6c0,0.2,0.1,0.4,0.2,0.6c-0.3,0.1-0.6,0.1-0.7,0.1c-0.2,0-0.3-0.1-0.3-0.2
	c-0.1-0.1-0.1-0.2-0.2-0.4c0-0.2-0.1-0.4-0.2-0.6c-0.2,0.1-0.3,0.4-0.3,0.9s0.1,1,0.3,1.4c0.2,0.4,0.3,0.7,0.6,0.8
	c0.2,0.1,0.4-0.1,0.6-0.8c0,0.2,0,0.5-0.1,0.7c0,0.2-0.1,0.5-0.1,0.7c-0.3-0.2-0.5-0.3-0.8-0.5c-0.3-0.2-0.5-0.3-0.8-0.5
	c0.1,0.5,0.5,1,1,1.4c-0.4-0.1-0.6-0.1-0.7-0.1s-0.1,0-0.1,0.1s0.1,0.1,0.2,0.2s0.1,0.1,0.1,0.2c0.1-0.1,0.2,0,0.5,0.1
	c-0.6,0.3-1,0.4-1.3,0.4c-0.3,0-0.4-0.3-0.3-1h-0.3c-0.1,0.2-0.1,0.4-0.1,0.5c0,0.1,0,0.2,0,0.3s0,0.2,0,0.3c0,0.1-0.1,0.3-0.1,0.5
	c0.5-0.1,0.9,0,1.1,0.3c0.2,0.4,0.4,0.8,0.4,1.2c0,0.5,0,0.9-0.2,1.3c-0.2,0.4-0.4,0.6-0.7,0.6c0.2,0.5,0.5,0.7,0.9,0.8
	c0.4,0,0.9-0.1,1.4-0.4c0,0.3,0,0.4,0.1,0.5c0.1,0,0.2,0.1,0.3,0.1s0.2,0,0.4,0c0.1,0,0.3,0.1,0.4,0.3c0,0-0.1,0.1-0.2,0.2
	c-0.1,0.2-0.2,0.3-0.4,0.5s-0.3,0.4-0.4,0.6c-0.1,0.2-0.2,0.3-0.2,0.3c-0.4,1,0,1.6,1.2,1.8V207c0.3,0.2,0.5,0.3,0.8,0.4
	c0.3,0.1,0.5,0.2,0.8,0.3c-0.1-0.1-0.2-0.2-0.4-0.3c-0.1-0.1-0.2-0.2-0.3-0.3c0-0.1,0-0.1,0.1-0.1c0.1,0,0.4,0.1,0.8,0.2
	c-0.1-0.2-0.1-0.5-0.1-0.8s0.1-0.5,0.2-0.7c-0.2,0-0.4,0-0.5,0s-0.1-0.1,0.1-0.4c-0.5,0.3-0.9,0.4-1.1,0.4c-0.2,0-0.3-0.2-0.3-0.4
	c0-0.2,0-0.5,0-0.8s-0.1-0.5-0.3-0.8c0.5,0.3,1,0.3,1.5,0.1c-0.1,0.2-0.2,0.3-0.3,0.4c-0.1,0.1-0.2,0.2-0.3,0.3s-0.1,0.2,0,0.3
	c0,0.1,0.1,0.3,0.3,0.5c0.1-0.4,0.2-0.7,0.3-0.9s0.1-0.6,0-1c0.3,0.1,0.6,0.1,0.8-0.1c-0.3-0.4-0.5-0.5-0.8-0.4
	c-0.3,0.1-0.6,0.4-0.8,1c-0.1-0.4-0.1-0.5-0.2-0.5c-0.1,0.1-0.3,0.2-0.7,0.4c0.1-0.4,0.1-0.6,0.1-0.7c-0.1-0.1-0.3-0.3-0.6-0.5
	c0.2-0.1,0.5-0.3,0.9-0.5c0.4-0.2,0.7-0.4,0.8-0.6c-0.2-0.1-0.3-0.2-0.3-0.3c0,0-0.1,0-0.1,0c0,0-0.1,0.1-0.1,0.2s-0.1,0.1-0.3,0.2
	c-0.1-0.2-0.1-0.4-0.1-0.7c0-0.3,0.1-0.5,0.2-0.7c-0.1,0.1-0.3,0.3-0.6,0.4c0-0.1,0.1-0.3,0.1-0.6c0.1-0.3,0.1-0.6,0.2-1
	c0.1-0.3,0.1-0.6,0.2-0.8c0.1-0.2,0.2-0.3,0.3-0.3c0.5,0.2,0.5-0.1,0-0.8c0.6,0.4,1,0.3,1.1-0.3c0.1,0.1,0.2,0.3,0.3,0.6
	c0,0.3,0.1,0.6,0.1,0.8s0,0.5,0.1,0.7c0,0.2,0.1,0.2,0.3,0c-0.2,0.3-0.3,0.4-0.2,0.5c0.1,0.1,0.2,0.1,0.3,0.1c0.1,0,0,0.1-0.1,0.1
	c-0.1,0.1-0.5,0.2-1.2,0.4c0,0.2,0.1,0.4,0.2,0.6s0.2,0.3,0.2,0.5s0.1,0.3,0.1,0.4s-0.2,0.2-0.4,0.3c0.2,0.1,0.3,0.2,0.3,0.3
	s0.1,0.1,0.1,0.1s0.1,0,0.2-0.1s0.3-0.1,0.5-0.3c-0.2,0.2-0.3,0.4-0.2,0.5s0.3,0.1,0.5,0.1s0.5,0,0.8-0.1c0.3,0,0.5,0,0.6,0
	c0,0.2,0,0.4,0.1,0.6c0,0.2,0.1,0.4,0.2,0.6c-0.1-0.2-0.3-0.3-0.5-0.3c-0.2,0-0.6-0.1-1-0.2c0.1,0.3,0.2,0.6,0.4,0.8
	c0.2,0.2,0.4,0.5,0.5,0.7c0.1,0.1,0.1,0.3,0.1,0.5s-0.1,0.3-0.2,0.4s-0.2,0-0.3-0.1c-0.1-0.1-0.2-0.5-0.3-1
	c-0.1,0.2-0.2,0.4-0.2,0.7c0,0.3-0.1,0.5-0.2,0.8c0.4-0.2,0.9-0.2,1.5,0c0-0.4,0-0.7,0.1-0.8c0-0.2,0.1-0.3,0.2-0.3
	c0.1-0.1,0.2-0.1,0.3-0.1c0.1,0,0.3-0.1,0.6-0.2c-0.3-0.4-0.4-0.7-0.5-0.9c0-0.2,0-0.4,0-0.4c0.1,0,0.1,0.1,0.3,0.3
	c0.1,0.2,0.2,0.5,0.3,0.9c0.3-0.5,0.5-0.6,0.7-0.4c0.2,0.2,0.5,0.5,0.9,0.9c0.1-0.2,0.2-0.5,0.2-0.7c0-0.2,0-0.4,0.1-0.6
	c0-0.2,0.1-0.4,0.2-0.5c0.1-0.2,0.3-0.3,0.5-0.5c-0.1,0.3-0.1,0.6,0.1,0.8c0.1,0.2,0.3,0,0.5-0.6c0.1,0.7,0.1,1.5,0.2,2.2
	c0,0.7,0.1,1.4,0.1,2.2H167.1z M138,177.4c-0.4-0.1-0.8-0.1-1.4-0.1c-0.6,0-1-0.1-1.3-0.3c-0.1-0.6-0.1-1.2-0.2-1.9
	c-0.1-0.7-0.1-1.3-0.1-2c0-0.5,0.1-1,0.2-1.5c0.1-0.5,0.3-0.9,0.5-1.4c0.4-0.2,1-0.4,1.6-0.4c0.6-0.1,1.2-0.1,1.9,0
	c0.7,0,1.3,0.1,1.9,0.2s1.2,0.1,1.7,0.1c0.5,0,1.1,0,1.7-0.1c0.6,0,1.2-0.1,1.8-0.1c0.6,0,1.2,0,1.7,0.1c0.6,0.1,1.1,0.2,1.5,0.3
	c0,0.3,0.1,0.8,0.2,1.5c0.1,0.7,0.2,1.4,0.2,2.2s0,1.5,0,2.1c-0.1,0.6-0.2,1-0.5,1.1c-0.2,0.2-0.5,0.2-1,0.2c-0.5,0-0.8,0-1,0.1
	c-1.5,0.1-3.1,0.1-4.6,0.1C141.1,177.5,139.6,177.5,138,177.4z M137.9,184.6c-0.1,0.4-0.1,0.6-0.2,0.8c0,0.2,0.1,0.3,0.3,0.6
	c0.2-0.4,0.3-0.7,0.3-0.8S138.2,184.8,137.9,184.6z M138.3,201.4c0.2-0.5,0.1-1-0.3-1.3C137.7,200.7,137.8,201.1,138.3,201.4z
	 M138.2,189.2c0.1,0.5,0.3,0.6,0.7,0.3c-0.1-0.1-0.2-0.2-0.3-0.3C138.5,189.1,138.4,189.1,138.2,189.2z M139.3,187.1
	c0.1,0.3,0.1,0.5,0.1,0.6c0,0.1,0.1,0.2,0.4,0.4c-0.1-0.2-0.1-0.4-0.1-0.5C139.6,187.5,139.5,187.3,139.3,187.1z M140.4,186.6
	c-0.1,0.3-0.1,0.5-0.1,0.6c0,0.1,0.1,0.2,0.1,0.2c0.1,0,0.1,0,0.2,0c0.1,0,0.1,0,0.2,0C140.8,187,140.7,186.8,140.4,186.6z
	 M143.2,203.2c0.1-0.1,0.2-0.2,0.3-0.3c0.1-0.1,0.2-0.1,0.4,0.1c0-0.4-0.1-0.7-0.3-1.1L143.2,203.2z M144.8,201.3
	c-0.1,0.5,0,0.7,0.4,0.6C145.2,201.6,145.1,201.4,144.8,201.3z M145.2,182.9c0,0.2,0,0.3-0.1,0.5c0,0.2-0.1,0.3-0.1,0.5
	c0.3-0.2,0.5-0.3,0.6-0.5c0.1-0.2,0.3-0.3,0.7-0.5c-0.2-0.2-0.3-0.3-0.5-0.2C145.8,182.7,145.6,182.8,145.2,182.9z M145.6,233.1
	c0.2,0.3,0.4,0.5,0.6,0.5c0.2,0,0.4,0,0.7,0.1L145.6,233.1z M154.1,210.6c0.1-1.3,0.1-2.6,0.2-3.9c0-1.3,0.1-2.6,0.1-3.9
	c0-0.8,0-1.6,0-2.4s0-1.6-0.1-2.3c0-1-0.1-2-0.1-3c0-0.9-0.2-1.8-0.4-2.6c-0.3-0.8-0.7-1.5-1.2-2c-0.6-0.6-1.4-1-2.5-1.2
	c-0.6,0.4-1.1,0.9-1.5,1.6c-0.4,0.7-0.7,1.5-0.9,2.3c-0.2,0.9-0.3,1.8-0.4,2.8c-0.1,1-0.1,2.1-0.1,3.1c0,1.8,0.1,3.6,0.2,5.4
	c0.1,1.8,0.2,3.2,0.2,4.3c0,1.5-0.1,3.2-0.3,5.2c-0.2,2-0.3,3.9-0.3,5.9c0,1.4,0.1,2.8,0.3,4.1c0.2,1.3,0.5,2.5,0.9,3.5
	c0.2,0.5,0.5,0.8,0.9,1.1c0.4,0.3,0.8,0.4,1.3,0.4c0.5,0,0.9,0,1.4-0.2c0.5-0.2,0.9-0.4,1.2-0.7c0.3-0.3,0.6-0.6,0.7-1
	c0.1-0.4,0.2-0.9,0.3-1.4c0.1-0.5,0.1-1,0-1.5c0-0.5-0.1-0.9-0.1-1.3c-0.1-2-0.1-4.1,0-6.1C153.9,214.7,154,212.6,154.1,210.6z
	 M148.2,185.1c0.2-0.3,0.3-0.5,0.4-0.8s0.2-0.5,0.4-0.6c-0.3-0.1-0.6-0.3-0.8-0.7V185.1z M148.6,179.9c-0.3,0.5-0.2,0.8,0.2,0.9
	c0.2-0.4,0.2-0.6,0.2-0.7S148.8,179.9,148.6,179.9z M149.7,186.3c-0.3-0.1-0.5-0.2-0.5-0.3c0-0.1,0-0.2,0-0.3c0-0.1,0-0.2,0-0.3
	c0-0.1-0.2-0.1-0.6-0.2c-0.1,0.4,0,0.8,0.2,1S149.3,186.5,149.7,186.3z M161.6,169.8c0.6,0,1.1,0,1.6,0c0.5,0,1.1,0,1.6,0.1
	c0.6,0.1,1.1,0.4,1.3,1.1c0.2,0.7,0.3,1.4,0.3,2.2c0,0.7,0,1.3-0.1,2c-0.1,0.7-0.1,1.2-0.1,1.6c-0.5,0-0.9-0.1-1.2-0.4
	s-0.7-0.4-1.2-0.5c0.2,0.6,0.2,1-0.1,1.2c-0.3,0.2-0.7,0.3-1.2,0.3c-0.5,0-1.1,0-1.7-0.1c-0.6-0.1-1.2-0.1-1.6-0.1
	c-0.2,0-0.7,0-1.4,0.1c-0.8,0.1-1.6,0.1-2.4,0.1c-0.4,0-0.9,0-1.3-0.1c-0.4,0-0.8-0.1-1.1-0.2s-0.6-0.2-0.8-0.3
	c-0.2-0.2-0.3-0.3-0.2-0.5c-0.1-0.9-0.2-1.8-0.2-2.7c0-0.9,0-1.8,0.2-2.7c0.1-0.6,0.5-1,1-1.2s1.2-0.3,1.9-0.3c0.6,0,1.2,0,1.9,0.1
	c0.7,0.1,1.2,0.1,1.6,0.1H161.6z M153.9,187c-0.4-0.1-0.6-0.1-0.5,0c0.1,0.1,0.2,0.3,0.4,0.5c0.2-0.1,0.2-0.2,0.1-0.3
	C153.8,187.2,153.8,187.1,153.9,187z M153.7,184.3c-0.1,0.3,0,0.6,0.1,0.9c0.1,0.3,0.3,0.5,0.5,0.7c0-0.3-0.1-0.6-0.2-0.8
	C154,184.9,153.9,184.6,153.7,184.3z M154.7,225.4c0.2-0.1,0.4,0,0.6,0.1c-0.1-0.2-0.1-0.4-0.2-0.5c0-0.1-0.2-0.1-0.5-0.1V225.4z
	 M155.9,207.5c0.1-0.3,0.1-0.4,0-0.5c-0.1-0.1-0.2-0.2-0.4-0.4c-0.1,0.3-0.2,0.6-0.3,0.7c-0.1,0.1,0,0.2,0.3,0.4
	c0.1,0,0.1,0,0.1-0.1c0-0.1-0.1-0.1-0.1-0.2c0.1,0,0.1,0,0.2,0.1C155.8,207.3,155.8,207.4,155.9,207.5z M155.2,197.5
	c0.5-0.2,0.8-0.5,0.9-0.8c0.1-0.3-0.1-0.6-0.6-1L155.2,197.5z M155.3,237.9c0.3,0.1,0.5,0.2,0.6,0.1c-0.1-0.4-0.3-0.8-0.6-1.1V237.9
	z M156.1,206.9c0.2-0.2,0.4-0.3,0.6-0.4s0.4-0.2,0.6-0.3s0.2-0.2,0.2-0.3s-0.2-0.2-0.5-0.4c-0.1,0.1-0.2,0.3-0.5,0.6
	c-0.2,0.1-0.3,0.2-0.4,0.1S156,206,156,206c0-0.1,0,0,0,0.1C156,206.1,156.1,206.4,156.1,206.9z M157.1,225.9
	c0.1-0.2,0.2-0.4,0.2-0.5c0-0.1-0.1-0.2-0.2-0.2s-0.2-0.1-0.3-0.3s-0.1-0.3-0.1-0.6c-0.4,0.4-0.5,0.7-0.4,0.9
	S156.7,225.7,157.1,225.9z M156.9,203c-0.1-0.2-0.1-0.4,0-0.5s0.2-0.2,0.2-0.4l0.3,0.9H156.9z M158.3,201.8c0-0.2,0.1-0.4,0.3-0.6
	c0.2,0.1,0.3,0.3,0.3,0.6c-0.1,0-0.2,0-0.3,0.1s-0.2,0.1-0.3,0.1c-0.1,0.2-0.2,0.3-0.5,0.3c-0.2,0-0.5,0-0.8-0.2
	c0.3,0,0.5-0.1,0.6-0.2c0.1-0.1,0.2-0.3,0.3-0.5L158.3,201.8z M157.7,208.1c-0.1-0.5-0.2-0.8-0.2-1c-0.1-0.1-0.1-0.2-0.1-0.2
	c0,0,0.1,0,0.2,0.1c0.1,0,0.2,0,0.4-0.2c-0.6-0.2-0.8-0.2-0.7,0C157.4,207,157.5,207.4,157.7,208.1z M157.5,183.3
	c-0.2,0.3-0.2,0.5,0.1,0.6c0.2-0.2,0.2-0.4,0.2-0.5C157.8,183.3,157.7,183.2,157.5,183.3z M157.5,203.1c0.1-0.2,0.2-0.3,0.3-0.2
	s0.2,0.2,0.3,0.4c-0.2-0.1-0.3-0.1-0.3-0.1c0,0,0,0.1,0,0.2L157.5,203.1z M158.4,233.9c0.8-0.1,1-0.4,0.6-0.8
	c-0.1,0.2-0.2,0.3-0.3,0.5S158.5,233.8,158.4,233.9z M158.8,225.7c-0.1,0.8-0.2,1.2-0.2,1.4s0.2,0,0.7-0.4c-0.1-0.2-0.1-0.3-0.2-0.5
	S158.9,225.8,158.8,225.7z M158.9,236.2c0-0.1,0-0.2,0.1-0.4c0.1-0.2,0.2-0.2,0.3,0.1c0-0.4-0.2-0.7-0.5-1c0.1,0.4,0.1,0.7,0.1,0.9
	C158.9,236,158.9,236.1,158.9,236.2z M159.7,186c0,0.2,0,0.3,0,0.5s0,0.3-0.1,0.5C160,186.7,160.1,186.4,159.7,186z M160,188.8
	c0.1-0.4,0-0.6-0.3-0.5c-0.1,0.1-0.1,0.2-0.1,0.5H160z M160.5,197.6c-0.2,0.4-0.3,0.7-0.3,0.8c0,0.1-0.1,0.1-0.1,0
	c0-0.1-0.1-0.1-0.2-0.2c-0.1-0.1-0.2,0-0.4,0.1c0.1,0.2,0.2,0.4,0.3,0.5c0.1,0.1,0.3,0.1,0.6,0.1V197.6z M160.2,195.6
	c-0.2,0-0.3-0.1-0.4-0.2c-0.1-0.1-0.1-0.2-0.2-0.4c0-0.1,0-0.2,0.1-0.3c0.1-0.1,0.2-0.1,0.4,0c0.4,0,0.7,0.2,0.8,0.5
	C161,195.4,160.7,195.6,160.2,195.6z M160.2,223.1c0.3,0,0.4-0.1,0.5-0.2c0.1-0.1,0.1-0.2,0.1-0.3s-0.1-0.2-0.2-0.4
	s-0.1-0.4-0.2-0.6L160.2,223.1z M160.5,185.4c-0.3,0.4-0.4,0.7-0.2,1c0.1-0.2,0.1-0.3,0.2-0.3c0.1,0,0.2,0,0.3,0
	C160.8,185.8,160.7,185.6,160.5,185.4z M161.2,223.3c0-0.1,0-0.2,0-0.3c0-0.1,0.1-0.1,0.3,0c-0.1-0.2-0.3-0.4-0.6-0.5L161.2,223.3z
	 M162,220.3c0.1-0.4,0-0.7-0.2-1.1C161.6,220,161.6,220.3,162,220.3z M161.9,196.2c0.4,0.2,0.6,0.7,0.5,1.3
	c-0.3-0.1-0.4-0.3-0.4-0.5C162.1,196.7,162,196.5,161.9,196.2z M162,190.9c0.1,0.5,0.1,0.8,0.2,0.9c0,0.1,0.1,0.1,0.1,0
	c0-0.1,0-0.2,0.1-0.3c0-0.1,0.1-0.2,0.2-0.1L162,190.9z M162,198.8c0-0.4,0.1-0.7,0.2-0.7s0.3-0.1,0.5-0.3c-0.1,0.3-0.2,0.4-0.3,0.5
	c-0.1,0.1-0.1,0.2-0.1,0.6c-0.1,0-0.1,0-0.2-0.1C162.2,198.8,162.1,198.8,162,198.8z M163.4,217.2c0,0.4,0.3,0.5,0.8,0.3
	C164,217,163.7,216.9,163.4,217.2z M164.5,202.5c0.2,0.2,0.3,0.3,0.4,0.4c0.1,0.1,0.1,0.1,0,0.2c0,0-0.1,0.1-0.2,0.1
	c-0.1,0-0.2,0.1-0.2,0.3c0.1-0.1,0.1-0.2,0.1-0.4S164.5,202.7,164.5,202.5z M165.7,195.3c-0.1,0.2-0.3,0.3-0.4,0.4
	c-0.1,0.1-0.2,0.2-0.3,0.2s-0.1,0.1-0.2,0.2s0,0.2,0,0.4c0.1,0,0.2-0.1,0.4-0.2s0.3-0.2,0.4-0.4s0.2-0.3,0.2-0.4
	C165.8,195.5,165.8,195.4,165.7,195.3z M165.1,201.2c0.1-0.3,0.1-0.4,0.1-0.5s-0.1-0.2-0.1-0.6c0.3,0.3,0.5,0.4,0.6,0.4
	c0,0.1,0,0.1-0.1,0.2c0,0.1,0,0.1,0.1,0.2L165.1,201.2z M166.9,202.6c-0.4-0.1-0.6-0.1-0.8,0.1c-0.1,0.1-0.4,0.2-0.7,0.4
	c0-0.5,0.2-0.9,0.6-1C166.5,202,166.8,202.1,166.9,202.6z M167.5,201.6c0,0.2,0,0.3,0.1,0.4c0,0.1,0.1,0.2,0.1,0.4
	c-0.1,0-0.2-0.1-0.3-0.2s-0.3-0.2-0.5-0.3s-0.3-0.2-0.4-0.3c-0.1-0.1-0.1-0.2-0.1-0.4c0.1,0.2,0.2,0.3,0.3,0.3s0.1,0,0.2-0.1
	s0.2-0.1,0.3-0.1C167.2,201.4,167.3,201.4,167.5,201.6z M167.5,199.9c-0.1,0.1-0.1,0.2-0.2,0.3c0,0.1-0.1,0.2-0.1,0.4
	c-0.3-0.2-0.4-0.4-0.4-0.6s0.1-0.4,0.2-0.6C167.2,199.5,167.4,199.6,167.5,199.9z"/>
<path class="st0" d="M206.7,222.6c0,1.5,0.1,3.2,0.4,5c0.3,1.8,0.4,3.6,0.4,5.4c0,0.9-0.1,1.8-0.2,2.6c-0.1,0.8-0.4,1.6-0.7,2.2
	c-0.3,0-0.7,0.1-1.3,0.1c-0.5,0.1-1.1,0.1-1.8,0.2c-0.7,0.1-1.4,0.1-2.1,0.2c-0.8,0.1-1.5,0.1-2.2,0.1c-0.8,0-1.6,0-2.4-0.1
	c-0.8-0.1-1.4-0.2-2-0.3c-0.6-0.2-1-0.4-1.4-0.7s-0.5-0.6-0.5-1.1v-15.6c0-0.4,0-1.1,0.1-2.1c0.1-1,0.1-2.2,0.2-3.6
	c0.1-1.4,0.1-2.9,0.2-4.6c0.1-1.7,0.1-3.4,0.1-5.1c0-2-0.1-4-0.2-6c-0.1-2-0.3-3.7-0.5-5.3c-0.3-1.6-0.6-2.9-1-3.8
	c-0.4-1-1-1.5-1.6-1.6c-0.9-0.1-1.6,0.1-2.1,0.5c-0.5,0.4-0.9,1-1.2,1.7c-0.3,0.7-0.5,1.5-0.6,2.4c-0.1,0.9-0.1,1.8-0.1,2.6
	c0,0.8,0,1.5,0.1,2.2c0,0.7,0.1,1.2,0.1,1.7c0,3.4,0,6.7,0.1,10c0,3.3,0.1,6.7,0.1,10c0,2.2,0,4.4,0.1,6.6c0,2.2,0.1,4.4,0.2,6.6
	c0,0.7,0.1,1.3,0.1,2c0,0.6,0,1.2-0.1,1.7c-0.1,0.5-0.4,0.9-0.7,1.2s-0.9,0.5-1.6,0.5c-0.6,0.1-1.2,0.1-1.8,0.1c-0.6,0-1.2,0-1.8,0
	c-2.3,0-4.6-0.1-6.8-0.3c-0.6-0.1-0.9-0.4-1.1-1c-0.2-0.6-0.3-1.3-0.3-2.2c0-0.5,0-1,0.1-1.5s0.1-1,0.1-1.5s0.1-1,0.2-1.4
	c0.1-0.4,0.1-0.7,0.1-1c0-2,0-4-0.1-5.9c0-2-0.1-4-0.1-5.9c0-1,0-2,0-2.9c0-1,0-2,0.1-2.9c0.1-0.7,0.1-1.4,0.1-2.1
	c0-0.7,0-1.4,0-2.1c0-2.4-0.1-4.8-0.2-7.2c-0.1-2.4-0.2-4.8-0.3-7.2c0-2.7,0.1-5.5,0.2-8.1c0.1-2.7,0.2-5.4,0.1-8.1
	c0-0.2,0-0.6,0-1.4c0-0.8,0-1.6,0-2.5c0-0.9,0.1-1.7,0.2-2.3c0.1-0.7,0.2-1,0.4-1c1.2,0,2.5,0,3.7-0.1c1.2-0.1,2.5-0.1,3.7,0
	c0.7,0,1.4,0,2-0.1c0.6-0.1,1.2-0.1,1.7,0s0.9,0.3,1.2,0.6s0.5,0.9,0.5,1.8l0.6,10.2c0.5-0.3,0.9-0.6,1.2-1.1s0.8-0.8,1.5-1.1
	c0.5-0.2,1-0.4,1.6-0.6c0.6-0.2,1.1-0.3,1.7-0.4c1.1-0.2,2.3-0.3,3.5-0.2c1.2,0.1,2.3,0.3,3.4,0.7c1.3,0.4,2.4,1,3.3,1.8
	c0.9,0.7,1.6,1.6,2.2,2.6c0.6,1,1,2.1,1.3,3.2c0.3,1.2,0.4,2.4,0.5,3.7c0.1,2.2,0.1,4.4,0.1,6.7c0,2.2,0,4.5,0,6.7V222.6z
	 M200.1,186.9c-0.2,0.2-0.4,0.3-0.7,0.4c0.3,0.2,0.6,0.3,0.7,0.3C200.4,187.6,200.3,187.3,200.1,186.9z M202.6,219.8
	c-0.1,0.1-0.2,0.3-0.2,0.4c-0.1,0.1-0.1,0.2-0.2,0.3c0.4-0.1,0.6-0.2,0.5-0.4C202.7,219.9,202.6,219.8,202.6,219.8z"/>
<path class="st0" d="M211.9,198.6c0-1.4,0-2.8-0.1-4.2c0-1.4-0.1-2.9-0.1-4.3c0-0.7,0-1.4,0-2.2c0-0.7,0-1.5,0.1-2.2
	c0.1-0.8,0.1-1.7,0.1-2.6c0-0.9,0.2-1.8,0.5-2.5c0.1-0.2,0.2-0.4,0.4-0.4c0.2,0,0.5,0,0.7,0s0.5,0.1,0.8,0.2s0.4,0.1,0.6,0.1
	c0.5,0,1,0,1.5-0.1s1-0.2,1.4-0.3s0.9-0.2,1.4-0.3c0.5-0.1,1-0.1,1.5-0.1c0.6,0.1,1.1,0.1,1.7,0.1c0.6,0,1.1,0,1.7,0
	c0.5,0,0.9,0,1.1,0.1c0.2,0.1,0.4,0.2,0.5,0.3c0.1,0.2,0.1,0.4,0.2,0.7c0,0.3,0.1,0.6,0.2,1.1c1.4-0.9,2.8-1.6,4.3-2.1
	c1.5-0.5,2.9-0.8,4.3-0.8c1.6,0,3.1,0.3,4.5,0.9c1.4,0.6,2.8,1.6,4,3c0.9,1,1.6,2.2,2,3.6c0.4,1.3,0.6,2.7,0.7,4
	c0.1,1.2,0,2.4-0.2,3.6c-0.2,1.3-0.3,2.5-0.3,3.6c0,0.6,0,1.1,0.1,1.6c0.1,0.5,0.2,1,0.4,1.5c0.2,0.7,0.3,1.4,0.2,2.1
	c-0.1,0.7-0.2,1.4-0.3,2.1c-0.1,0.7-0.2,1.4-0.4,2.1c-0.1,0.7-0.1,1.4,0,2.2c0.1,0.8,0.2,1.5,0.3,2.3c0.1,0.8,0.1,1.6,0.1,2.4
	c0,0.6,0,1.1,0,1.7c0,0.6,0,1.1-0.1,1.7c-0.1,0.8-0.2,1.7-0.2,2.6c0,0.9,0,1.7,0,2.6c0,1.7,0,3.4,0.1,5.2c0.1,1.7,0.1,3.5,0.1,5.2
	l-0.5-0.4c0.1,0.5,0.2,0.9,0.3,1.4c0.1,0.5,0.2,1,0.2,1.5c0,0.6-0.1,1.1-0.4,1.6c-0.3,0.5-0.8,0.7-1.6,0.8c-0.9,0-1.9,0-2.8,0.1
	s-1.9,0.1-2.9,0.2c-0.4,0-0.8,0-1.3,0s-1,0-1.5,0c-0.5,0-1-0.1-1.5-0.2c-0.5-0.1-0.9-0.3-1.3-0.5c-0.2-0.2-0.4-0.5-0.5-1.1
	s-0.2-1.2-0.2-2c0-0.5,0-1.1,0.1-1.7c0-0.6,0.1-1.1,0.1-1.7c0-0.5,0.1-1,0.1-1.4c0-0.4,0.1-0.7,0.1-0.9c0-3.7,0-7.3,0.1-10.8
	s0.1-7.2,0.1-10.8c-0.1-0.5-0.1-1.1-0.2-1.6c0-0.5-0.1-1-0.1-1.6c0-1.6,0.1-3.3,0.2-4.9c0.2-1.6,0.2-3.3,0.1-4.9
	c-0.1-0.7-0.2-1.3-0.3-1.7c-0.1-0.5-0.3-0.9-0.5-1.2c-0.2-0.4-0.5-0.7-0.8-1c-0.3-0.3-0.7-0.7-1.1-1.2c-0.6,0.2-1.2,0.5-1.7,0.7
	c-0.5,0.2-0.9,0.5-1.2,0.8s-0.6,0.7-0.8,1.2c-0.2,0.5-0.3,1.1-0.4,1.9c-0.1,1.5-0.1,2.9-0.1,4.4s0.1,2.9,0.1,4.4v18.6
	c0,0.4,0,0.9,0,1.5c0,0.6,0,1.4,0.1,2.1c0,0.8,0.1,1.6,0.1,2.6c0,0.9,0,1.8,0,2.7c0,1,0,2-0.1,3c0,1-0.1,1.8-0.2,2.6
	c-0.1,0.8-0.2,1.4-0.4,1.8c-0.2,0.5-0.4,0.7-0.6,0.7c-1,0.1-2,0.1-3,0.2c-1,0-2.1,0.1-3.1,0.1c-0.9,0-1.9,0-2.8-0.1
	c-1-0.1-1.9-0.2-2.7-0.5c-0.4-0.1-0.6-0.2-0.8-0.4s-0.2-0.3-0.3-0.6s-0.1-0.5,0-0.7c0-0.3,0.1-0.6,0.1-0.9V198.6z"/>
<path class="st0" d="M275.7,210.6c-1.2,0-2.3,0-3.5,0c-1.1,0-2.3,0-3.4-0.1c-0.5,0-1.1-0.1-1.8-0.2s-1.4-0.2-2-0.2
	c-0.7,0-1.2,0.1-1.7,0.4s-0.7,0.7-0.7,1.5c0,1.1-0.1,2.3-0.2,3.6c-0.1,1.4-0.2,2.7-0.2,4.1c0,0.7,0,1.4,0.1,2.1
	c0,0.7,0.1,1.5,0.2,2.2c0.1,0.7,0.2,1.4,0.4,2c0.2,0.6,0.4,1.2,0.7,1.6c0.6,1,1.2,1.4,1.9,1.3c0.6-0.1,1.2-0.5,1.8-1.1
	c0.5-0.6,1-1.4,1.3-2.2c0.3-0.9,0.5-1.6,0.6-2.1c0-0.2,0-0.5,0-1c0-0.4,0-0.9-0.1-1.5c0-0.6,0-1.1-0.1-1.7c0-0.6,0-1.2,0-1.7
	c0-0.9,0.1-1.6,0.2-2.3c0.1-0.7,0.3-1,0.7-1c1.2-0.2,2.4-0.3,3.8-0.4c1.4-0.1,2.7-0.2,4.1-0.2c0.9,0,1.7,0,2.6,0.1
	c0.9,0.1,1.7,0.2,2.5,0.4c0.2,1,0.3,2.2,0.4,3.4c0.1,1.2,0.1,2.4,0.1,3.5c0,1.5-0.1,3.1-0.3,4.7c-0.2,1.6-0.6,3.1-1.2,4.6
	c-0.6,1.4-1.3,2.7-2.2,3.9c-0.9,1.2-2.1,2.1-3.5,2.8c-1.5,0.8-3.2,1.5-5,1.9c-1.8,0.4-3.6,0.6-5.6,0.6c-2,0-4-0.2-6-0.7
	c-2-0.5-3.8-1.3-5.4-2.3c-1.1-0.7-1.9-1.5-2.6-2.4c-0.7-0.9-1.2-1.9-1.5-2.9c-0.4-1-0.6-2.1-0.8-3.3c-0.2-1.1-0.2-2.3-0.3-3.5
	c0-0.5-0.1-1.1-0.1-1.7c0-0.6,0-1.2,0-1.8s0-1.2,0-1.8s0-1.2,0-1.7v-4.7c0-0.8,0-1.5,0-2.3s0-1.5-0.1-2.3c-0.1-2.4,0-4.8,0.1-7.1
	c0.1-2.3,0.2-4.7,0.2-7.1c0-0.9,0-1.7,0.1-2.6c0-0.9,0.2-1.7,0.4-2.5c0.1-0.3,0.3-0.7,0.5-1c0.2-0.3,0.4-0.6,0.6-0.9
	c0.2-0.3,0.3-0.5,0.4-0.8s0.1-0.5-0.1-0.8c0.5,0.4,0.7,0.5,0.7,0.3c0-0.2,0-0.4-0.1-0.9c0.1,0.1,0.2,0.2,0.3,0.3s0.2,0.1,0.4,0
	c0-0.3,0-0.6,0-0.9s0-0.6-0.1-0.9c0.2,0.2,0.4,0.2,0.6-0.1c0.3-0.3,0.5-0.7,0.8-1c0.3-0.4,0.5-0.6,0.7-0.8s0.4,0,0.5,0.4
	c1.5-1.4,3.4-2.5,5.6-3.2c2.2-0.7,4.5-1.1,6.8-1.1c1.7,0,3.5,0.2,5.2,0.6c1.7,0.4,3.3,1.1,4.6,1.9c1.4,0.9,2.5,2,3.5,3.3
	c1,1.4,1.6,3,1.9,4.9c0.2,1.3,0.4,2.6,0.5,4c0.1,1.3,0.2,2.7,0.2,4.1c0,2.3-0.1,4.7-0.2,7c-0.1,2.4-0.2,4.7-0.2,6.9H275.7z
	 M252,186.4c-0.4,0.3-0.6,0.7-0.6,1.2c0.1-0.1,0.2-0.2,0.4-0.3c0.2-0.1,0.3-0.2,0.4-0.4c0.1-0.1,0.2-0.2,0.2-0.3
	S252.3,186.5,252,186.4z M252.3,192.3c0-0.2,0.1-0.5,0.3-0.8c0.1-0.3,0.2-0.6,0.3-0.9s0.1-0.6,0.1-0.9c0-0.3-0.2-0.5-0.4-0.7
	l-0.6,0.6c0-0.2,0-0.3-0.1-0.5c0-0.1-0.1-0.3-0.2-0.5c0,0.1,0,0.2-0.1,0.3c-0.1,0.1-0.1,0.3-0.1,0.4c0,0.1-0.1,0.3-0.1,0.4
	s0.1,0.1,0.2,0.1c-0.1,0.3-0.2,0.5-0.2,0.6c0,0.2,0.1,0.4,0.2,0.6c0.1,0.1,0.2,0.3,0.3,0.4c0.1,0.1,0.1,0.3,0.1,0.4
	s-0.1,0.4-0.3,0.6H252.3z M252.1,200.9c0.2,0.1,0.2-0.1,0-0.6C251.9,200.5,251.9,200.7,252.1,200.9z M253,184.5c0,0.4,0,0.8,0,1.3
	c0,0.5,0.1,0.9,0.3,1.3c0.1-0.1,0.2-0.2,0.2-0.5s0-0.5-0.1-0.8s-0.1-0.6-0.2-0.8C253.1,184.8,253.1,184.6,253,184.5z M254,195.8
	c-0.2-0.1-0.3-0.1-0.4-0.1c-0.1,0-0.2,0-0.5,0.1c-0.1,0.4,0,0.7,0.3,0.7L254,195.8z M256.7,186c-0.1,0.1-0.2,0.2-0.4,0.3
	c-0.2,0.1-0.4,0.2-0.6,0.3c-0.2,0.1-0.4,0.2-0.6,0.3c-0.2,0.1-0.4,0.1-0.5,0.1c0.2,0.2,0.4,0.4,0.4,0.7c0.3-0.1,0.5-0.2,0.7-0.3
	c0.2-0.2,0.4-0.3,0.5-0.5c-0.1,0.5,0,0.9,0.1,1.2s0.3,0.7,0.4,1.1c0,0.2,0,0.5-0.1,0.7s-0.1,0.4-0.2,0.5s-0.2,0.1-0.2-0.1
	c-0.1-0.1-0.1-0.4,0-0.9c-0.1,0.1-0.1,0.3-0.2,0.5c0,0.2-0.1,0.4-0.1,0.7c0.4,0.1,0.7,0,0.9-0.2c0.2-0.2,0.3-0.5,0.4-0.9
	s0.1-0.7,0.1-1.1c0-0.4-0.1-0.7-0.2-0.9c-0.1-0.1-0.1-0.3-0.1-0.7c0-0.3,0.1-0.7,0.2-1.1s0.2-0.8,0.3-1.1c0.1-0.4,0.2-0.6,0.3-0.7
	c0,0.1,0.1,0.3,0.2,0.6c0-0.4,0-0.6-0.1-0.7c-0.1-0.1-0.3-0.3-0.6-0.5c-0.1,0.2-0.2,0.3-0.3,0.5c-0.1,0.2-0.3,0.3-0.5,0.4
	c0.1,0.5,0.3,0.5,0.6,0.1c-0.2,0.9-0.3,1.5-0.4,1.6s-0.2,0.1-0.4-0.1s-0.3-0.4-0.5-0.7c-0.2-0.3-0.4-0.3-0.7,0c0.1,0,0.1,0-0.1,0.2
	c-0.2,0.2-0.4,0.3-0.5,0.4s-0.2,0.2,0,0.2s0.6-0.2,1.4-0.5c0,0.1,0,0.2-0.1,0.3c0,0.2-0.1,0.3-0.1,0.3H256.7z M254.9,188.5
	c0.1,0.3,0.1,0.5,0.2,0.6c0.1,0.1,0.2,0.1,0.5,0c-0.1,0.2-0.1,0.3-0.2,0.5c0,0.1,0,0.3,0.1,0.6c0.2-0.3,0.3-0.5,0.3-0.7
	c0-0.2,0.1-0.5,0.2-0.9c-0.2,0-0.4,0-0.6,0C255.2,188.6,255.1,188.6,254.9,188.5z M255.2,188.2c0.1,0,0.2,0,0.2,0.1
	c0,0.1,0,0.1,0,0.2s0,0,0.1,0c0-0.1,0.2-0.2,0.4-0.4C255.5,188,255.3,188.1,255.2,188.2z M255.5,199.5c0.2,0,0.2-0.2,0-0.5
	C255.2,199.2,255.2,199.4,255.5,199.5z M259.5,184.9c0-0.2,0-0.5,0-0.8c0-0.3,0-0.6,0-1c0-0.3-0.1-0.6-0.2-0.9
	c-0.1-0.3-0.2-0.4-0.5-0.5c0,0.8,0,1.5-0.1,2.1c-0.1,0.6-0.1,1.4,0.1,2.2l0.5-0.2l-0.5-1H259.5z M263.2,185.3
	c-0.4-0.1-0.7-0.1-0.9,0.1s-0.4,0.4-0.5,0.6s-0.1,0.4,0.1,0.5s0.4,0,0.8-0.2c-0.1,0.2-0.2,0.3-0.2,0.4s0,0.2,0,0.4
	c0.2-0.5,0.3-0.9,0.5-1.1s0.4-0.6,0.7-0.9c0.2,0.2,0.2,0.3,0.2,0.5s-0.1,0.4-0.2,0.5c0.3-0.1,0.5-0.3,0.6-0.6
	c0.1-0.3,0.1-0.5,0.1-0.8s0-0.5,0-0.8c0-0.2,0.1-0.4,0.3-0.4c-0.4-0.6-0.7-0.9-0.9-1.1c-0.2-0.2-0.5-0.2-0.7,0
	c-0.2,0.1-0.4,0.2-0.6,0.4c-0.2,0.2-0.5,0.4-0.8,0.7c-0.1-0.4-0.1-0.8-0.1-1s0.1-0.5,0.1-0.7s-0.1-0.4-0.2-0.6
	c-0.1-0.2-0.4-0.5-0.8-0.8c0.2,0.2,0.3,0.4,0.3,0.7c0.1,0.3,0.1,0.5,0.2,0.8c-0.1-0.1-0.2-0.2-0.3-0.2s-0.2-0.1-0.3-0.2
	c0.2-0.4,0-0.7-0.7-1c0,0.2,0,0.6,0.1,1.3s0.1,1.3,0.2,2c0.1,0.6,0.2,1.1,0.4,1.5c0.2,0.4,0.3,0.3,0.6-0.1c0.3,0.5,0.6,0.7,0.8,0.5
	c0.2-0.2,0.4-0.5,0.6-1c0.2-0.5,0.3-0.9,0.4-1.4c0.1-0.5,0.2-0.8,0.3-0.9c0.2,0.3,0.3,0.6,0.3,0.8c0,0.3,0,0.5-0.1,0.7
	c-0.1,0.2-0.1,0.4-0.1,0.7S263,185,263.2,185.3z M259.8,198.5c-0.1,0.2-0.1,0.3-0.2,0.5s0,0.3,0.1,0.5
	C260,199.3,260.1,199,259.8,198.5z M259.7,188.3c-0.1,0.2-0.1,0.4-0.1,0.5s0.1,0.1,0.2,0.2s0.2,0,0.3,0.1s0.2,0.1,0.4,0.1
	L259.7,188.3z M259.7,203c0.1,0.2,0.2,0.3,0.2,0.4c0,0.1,0.2,0.1,0.4,0.2L259.7,203z M259.7,204.9c0.1,0.3,0.2,0.4,0.2,0.4
	c0,0,0.1-0.1,0.3-0.2c-0.2,0-0.2,0-0.2,0C260,205.1,259.9,205.1,259.7,204.9z M259.8,187.5c0.1-0.1,0.2-0.2,0.3-0.4
	c0.1-0.2,0.1-0.4,0.1-0.7C259.9,186.8,259.8,187.2,259.8,187.5z M260.4,203.3c0.2-0.3,0.1-0.6-0.3-0.8L260.4,203.3z M260.4,190.8
	c0.2,0.1,0.3,0,0.4-0.1s-0.1-0.3-0.3-0.6c0,0.1,0,0.2,0,0.3S260.5,190.6,260.4,190.8z M265,187.9c-0.3,1-0.9,1.4-1.8,1.1
	c0.1,0.6,0.1,1.2,0,1.9c-0.1,0.6-0.1,1.3-0.2,1.9c-0.1,0.6-0.2,1.3-0.3,1.9s-0.2,1.3-0.2,1.9c-0.1,1.1,0,1.9,0.2,2.4
	c0.2,0.5,0.5,0.8,0.9,0.9c0.4,0.1,0.9,0.2,1.6,0.1c0.7-0.1,1.5,0,2.4,0c0.5,0.1,0.9,0.1,1.2,0c0.3-0.1,0.4-0.2,0.5-0.5
	c0.1-0.2,0.1-0.5,0.1-0.9c0-0.4,0-0.9,0-1.4c0.1-1.8,0-3.7-0.3-5.6c-0.1-0.3-0.1-0.7-0.2-1s-0.2-0.6-0.3-0.9s-0.3-0.5-0.6-0.7
	c-0.2-0.2-0.6-0.3-1-0.4c-0.4-0.1-0.7-0.2-1.1-0.3S265.3,188.1,265,187.9z M263.2,180.8c-0.4,0.3-0.5,0.5-0.4,0.6
	c0.1,0.2,0.5,0.2,1,0.2c0.1-0.3,0-0.5-0.1-0.6C263.6,180.9,263.4,180.8,263.2,180.8z M264.8,181.7c-0.2,0.4-0.3,0.8-0.2,1.3
	c0.1,0.4,0.1,0.9,0.2,1.3c0.2,0,0.3-0.1,0.5-0.2c0.2-0.1,0.3-0.1,0.4-0.2c0.1-0.1,0.1-0.2,0-0.3s-0.2-0.2-0.5-0.3
	c0,0.3-0.1,0.4-0.4,0.3C265.1,182.9,265.1,182.3,264.8,181.7z M266,184.5c-0.5-0.2-0.9,0-1.2,0.4c0.4,0.1,0.7,0.1,0.8-0.1
	S265.8,184.6,266,184.5z M265.7,202.2c-0.3-0.1-0.4-0.1-0.4,0s0,0.2-0.1,0.4L265.7,202.2z M266.6,183c0,0.2,0,0.3,0,0.3
	s-0.1,0-0.3,0c0.1,0.2,0.3,0.4,0.6,0.4C267.1,183.4,267,183.2,266.6,183z M266.6,179.7h0.4c0-0.2,0-0.3-0.1-0.5
	c-0.1-0.2-0.2-0.3-0.3-0.4V179.7z M273.5,195.8c-0.1,0.1-0.1,0.2-0.1,0.4s0,0.3,0,0.4c0.2-0.1,0.3-0.2,0.3-0.3
	C273.7,196.1,273.6,196,273.5,195.8z M278.9,189.2c-0.1,0.2-0.2,0.3-0.2,0.4s0.1,0.1,0.2,0.1C279.2,189.3,279.2,189.2,278.9,189.2z"
	/>
<path class="st1" d="M26.5,1.4C22.7,1,19.1,0.6,15.5,0.2c-4-0.4-4-0.4-5.7,3.2C9.6,3.7,9.5,4,9.4,4.3c-1.5,6-3.2,11.9-4.3,18
	C3.8,29.4,2.6,40,2,47.4c0-0.1-0.1,0.3-0.1,0.7C1.4,58.2,0.6,68.2,0.3,78.3c0.2-0.1,0.4-0.2,0.5-0.2C0.9,78,1,78,1,78.1
	c0,0.1,0,0.2,0,0.4C1,78.6,1,78.8,1,79c0.6-0.2,1-0.2,1.3,0c0.3,0.2,0.5,0.4,0.6,0.7c0,0.1,0,0.2,0,0.2c0.1-0.1,0.2-0.2,0.2-0.2
	L2.9,81c0,0,0-0.1-0.1-0.1c-0.1,0.3-0.3,0.5-0.6,0.8c0,0.1,0,0.1,0,0.2c-0.1,0-0.1,0-0.1,0c0,0-0.1,0.1-0.1,0.1c0,0,0-0.1,0-0.1
	c-0.1-0.1-0.2-0.2-0.3-0.3c0.1-0.2,0.1-0.3,0.1-0.5c0-0.1,0-0.3,0-0.5c0,0.1,0.1,0.1,0.1,0.2c0,0,0-0.1,0-0.1
	c0.2,0.1,0.3,0.1,0.4,0.2c0.1,0.1,0.1,0.1,0.2,0.1c0,0,0.1,0,0.1-0.2c0,0,0-0.1,0-0.1c-0.1-0.2-0.2-0.4-0.3-0.5c0,0,0,0,0,0
	c-0.1,0-0.2,0.1-0.3,0.1c-0.1,0-0.2,0-0.3,0.1c0,0-0.1,0.1-0.2,0.2c0,0,0-0.1,0-0.1c-0.1,0-0.1,0-0.2,0c-0.2,0.1-0.3,0.2-0.3,0.3
	c0,0.1,0,0.3,0,0.4c0,0.2,0.1,0.3,0.1,0.5c0,0.2,0,0.3-0.1,0.4c-0.1-0.2-0.3-0.3-0.5-0.4c-0.2-0.1-0.3,0-0.5,0.1
	c0,0.7-0.1,1.4-0.1,2.2c-0.3,15.4,0.6,30.8,4.1,46c0.6,2.4,1.2,5.1,2.3,7.1c2.5,1.1,12.6,2.9,13.6,2.4c0,0-0.5-3-0.8-4.4
	C11.6,89.7,16.7,45.4,26.5,1.4z M18.6,20.9C18.6,21.1,18.6,21.1,18.6,20.9c-0.1,0-0.1-0.2-0.2-0.3c-0.1-0.2-0.1-0.2-0.2-0.2
	c0-0.1,0-0.1,0-0.1h-0.1c0,0,0,0,0-0.1c0-0.1,0.1-0.2,0.3-0.4C18.6,20.4,18.6,20.8,18.6,20.9z M17.3,13.6c0.3,0.3,0.6,0.5,0.7,0.8
	c0.1,0.3,0,0.5-0.3,0.7l-0.5-0.3C17.4,14.4,17.5,14,17.3,13.6z M16.8,15.9c0.1-0.1,0.2-0.1,0.4-0.1c0.1,0,0.3-0.1,0.5-0.1
	c0.2,0,0.4-0.1,0.6-0.3c0,0.3,0,0.5-0.1,0.7c-0.1,0.2-0.2,0.3-0.4,0.4c-0.2,0.1-0.4,0.1-0.6,0.1c-0.2,0-0.4,0-0.6-0.1
	C16.6,16.2,16.7,16,16.8,15.9z M0.6,95.3c-0.1,0.1-0.2,0.1-0.3,0c-0.1,0-0.1-0.1-0.1-0.1v-0.2c0-0.1,0-0.1,0-0.2
	C0.3,95,0.5,95,0.5,95C0.6,95.1,0.6,95.1,0.6,95.3z M1.9,94.3c-0.3,0.2-0.4,0.3-0.4,0.1c0-0.1,0.2-0.4,0.5-0.8L1.9,94.3z M1.6,90.7
	c0.1,0.1,0.1,0.1,0.3,0.1c0.1,0.3,0.1,0.4,0,0.5c-0.1,0.1-0.2,0.2-0.2,0.3C1.7,91.3,1.7,91,1.6,90.7z M2.1,84.5
	c-0.2,0.1-0.3,0.1-0.4,0.1c-0.1,0-0.1-0.1-0.1-0.1c0-0.1,0.1-0.2,0.1-0.3c0.1-0.1,0.2-0.2,0.3-0.3V84.5z M3.2,55.3
	c0-0.2,0.1-0.3,0.1-0.6c0.5,0.4,0.8,0.9,0.9,1.6c-0.2-0.1-0.3-0.1-0.4-0.2c-0.1,0-0.1,0-0.1-0.1c0,0-0.1,0-0.1-0.1
	c-0.1,0-0.2-0.1-0.4-0.1C3.2,55.7,3.2,55.5,3.2,55.3z M4.3,75.2c0,0.4-0.2,0.7-0.5,0.9c-0.1,0-0.1-0.1-0.1-0.2c0-0.1,0-0.3,0-0.4
	c0-0.2,0-0.3,0-0.5c0-0.2-0.1-0.3-0.2-0.4C4.1,74.7,4.3,74.9,4.3,75.2z M1.3,61.3v-0.6c0.2,0.3,0.3,0.5,0.4,0.6
	c0.1,0.1,0.1,0.2,0.1,0.2c0,0,0,0.1-0.1,0.1c-0.1,0.1-0.1,0.2-0.1,0.3H1.2C1.2,61.7,1.3,61.5,1.3,61.3z M1.8,78.1
	c-0.1,0.1-0.4,0.1-0.8-0.2c0.3-0.1,0.5-0.2,0.5-0.5C1.8,77.8,1.9,78,1.8,78.1z M2.2,77.4c-0.2,0-0.3,0-0.3,0c0,0-0.1-0.1-0.1-0.1
	c0-0.1,0-0.1,0-0.2c0-0.1,0-0.1-0.1-0.2C2,77,2.2,77,2.2,77.1C2.3,77.1,2.3,77.3,2.2,77.4z M2.3,56.9C2.1,56.6,2,56.4,2,56.2
	c0-0.2,0.1-0.4,0.1-0.7H1.7v-1c0.1,0.1,0.1,0.3,0.1,0.4v0.4C1.9,55.1,2,54.9,2,54.7c0.1,0.1,0.2,0.1,0.3,0.2
	c0.1,0.1,0.2,0.1,0.3,0.2c-0.2,0.2-0.3,0.3-0.2,0.3c0,0,0,0,0,0c0,0-0.1,0-0.1,0c0.1,0.1,0.1,0.1,0.3,0.1L2.3,56.9z M2.9,79
	c-0.2-0.1-0.4-0.2-0.4-0.4c0-0.2,0-0.3,0.2-0.5C3.1,78.4,3.1,78.7,2.9,79z M3,77.2c-0.1-0.2-0.2-0.4-0.2-0.6
	c-0.1-0.2-0.1-0.3-0.1-0.3c0.3,0.3,0.6,0.5,0.9,0.5l-0.2,0.7c0,0,0.1,0,0.1,0c0.1,0,0.1-0.1,0.2-0.1c0.1,0,0.1-0.1,0.2-0.1
	c0,0,0,0,0,0c-0.1,0.1-0.1,0.3-0.3,0.5c-0.1,0.2-0.2,0.3-0.3,0.5c0,0,0-0.1-0.1-0.3C3.2,77.6,3.1,77.4,3,77.2z M4.4,86.6
	c0-0.1-0.1-0.1-0.2,0c-0.1,0.1-0.3,0.3-0.4,0.4v0.1c0.1-0.1,0.2,0,0.1,0.1c-0.1,0.1,0,0.3,0,0.5c-0.1,0.1-0.2,0-0.3,0
	c-0.2-0.1-0.3-0.2-0.5-0.3c-0.2-0.1-0.3-0.3-0.5-0.4c-0.1-0.2-0.2-0.3-0.3-0.5c0.3,0.1,0.6-0.1,0.9-0.3c0.3,0.4,0.3,0.8,0.2,1.1
	c0.1,0,0.1,0,0.1,0c0,0,0.1,0,0.1,0c0-0.1,0-0.1,0-0.1h0C3.8,87,3.9,86.8,4,86.7c0.1-0.1,0.3-0.4,0.5-0.7
	C4.8,86.2,4.8,86.4,4.4,86.6z M5.1,70.4c-0.3,0-0.4-0.2-0.4-0.6C4.9,69.9,5,70,5.1,70.1c0.1,0,0.1,0.1,0.1,0.1c0,0,0,0-0.1,0
	C5.1,70.2,5.1,70.3,5.1,70.4z M4.7,66.1c0.1,0.2,0.2,0.3,0.3,0.5c0.1,0.2,0.1,0.4,0,0.8C5,67.2,4.9,67,4.9,66.8
	C4.8,66.6,4.8,66.4,4.7,66.1z M4.9,56.8c-0.1-0.3-0.1-0.5-0.1-0.6c0-0.1,0-0.3-0.1-0.3c0.1,0.1,0.1,0.1,0.2,0.1C5,56,5,56,5.1,55.9
	c0.2,0.2,0.3,0.4,0.3,0.5C5.4,56.4,5.2,56.6,4.9,56.8z M7.1,56.2c0.2,0.1,0.4,0.3,0.4,0.5c0.1,0.2,0,0.4-0.1,0.6
	C6.9,57,6.8,56.7,7.1,56.2z M6.8,74.7c0.2,0,0.4,0.2,0.6,0.5c-0.1,0.1-0.2,0.3-0.2,0.4C6.9,75.4,6.7,75.1,6.8,74.7z M7.3,81.8
	c-0.5-0.7-0.5-1.2,0.1-1.6c0.2,0.3,0.3,0.6,0.3,0.8C7.6,81.3,7.5,81.6,7.3,81.8z M11.1,62.9c-0.3-0.1-0.4-0.3-0.3-0.6
	C11.2,62.5,11.4,62.7,11.1,62.9z M11.3,57.2c0-0.2-0.1-0.2-0.4-0.1c0.1-0.2,0.2-0.3,0.3-0.4c0.1-0.1,0.2-0.1,0.2,0
	c0.1,0,0.1,0.1,0.1,0.2C11.5,57,11.4,57.1,11.3,57.2z M12.1,67l0.2-0.7C12.8,66.7,12.7,66.9,12.1,67z M12.8,19.2
	c-0.3,0.2-0.5,0.1-0.5-0.3c0.1,0.1,0.2,0.2,0.3,0.1c0.1-0.1,0-0.2,0-0.4c0.1,0.1,0.1,0.1,0.2,0.1H13C12.9,19,12.8,19.1,12.8,19.2z
	 M13.7,65.9c-0.1-0.1-0.1-0.3-0.1-0.5c0-0.2,0-0.5,0-0.7c0-0.3,0-0.4,0.1-0.5c0.1,0.1,0.1,0.2,0.2,0.4c0.1,0.2,0.1,0.4,0.1,0.5
	c0,0.2,0.1,0.4,0.1,0.5c0,0.2,0.1,0.3,0.1,0.3C13.9,66,13.8,66,13.7,65.9z M13.9,15c0.4,0.2,0.6,0.5,0.6,1
	C14.1,16,13.9,15.7,13.9,15z M2.8,80.1c0,0-0.1,0.1-0.1,0.1c0-0.1-0.1-0.1-0.1-0.2c0.1,0,0.2,0,0.2-0.1C2.8,80,2.8,80.1,2.8,80.1z
	 M83.4,15.8c-0.3-4.4-3.8-9.4-10-9.7c-7.7-0.4-15.3-1.5-22.9-2.2c-7.1-0.7-14.2-1.4-21.3-2.1c-0.2,0.5-0.3,0.9-0.4,1.3
	c-1,4.1-1.9,8.1-2.7,12.2c0,0,0,0.1,0,0.1c0,0,0,0,0,0C22.8,31,20.5,46.9,19.1,63c-1.7,20.4-1.8,40.8,1,61.2c0.7,5,1.7,10,2.5,15
	c4.6,0.3,8.9,0.5,13.3,0.7c7.6,0.5,11.1,3.8,12,11.2c7.8-0.2,15.5-0.3,23.5-0.5c-2.6-28.7,0.4-66.9,0.8-71.1l1-9.2
	c0.4-3.8,1.8-11.1,3.4-18.7c0,0-0.1,0-0.1,0c-0.2-0.1-0.4,0-0.6,0.1c0.1-0.1,0.1,0,0.2,0c0,0.1,0.1,0.2,0.1,0.2l-0.4-0.3l-0.4,0.5
	c-0.1-0.1-0.2-0.3-0.3-0.6c-0.1-0.3-0.2-0.5-0.3-0.8c-0.1-0.3-0.1-0.6-0.1-0.8c0-0.3,0.1-0.4,0.2-0.5c0.1,0,0.2,0,0.2,0.1
	c0,0.1,0,0.2,0,0.2c0,0.1,0,0.1,0.1,0c0,0,0.2-0.2,0.4-0.5c0.2,0.2,0.3,0.3,0.3,0.4c0,0.1,0,0.2,0.2,0.3c0.1-0.4,0.1-0.7,0.1-0.9
	c0-0.2-0.1-0.4-0.3-0.7c0.3,0.2,0.5,0.3,0.6,0.2c0.1-0.1,0.1-0.3,0.1-0.5c0-0.2-0.1-0.4-0.2-0.7c-0.1-0.2-0.2-0.4-0.2-0.5
	c0.3,0.1,0.5,0.2,0.6,0.5c0.1,0.3,0.2,0.5,0.3,0.6c0,0.1,0.1,0.1,0.2,0.2c2.1-9.8,4.3-19.4,5.1-22.6C83.1,22.5,83.6,19.1,83.4,15.8z
	 M19.8,60.6c-0.3,0-0.3-0.3,0-0.9V60.6z M32.2,17.5c0,0,0.1,0,0.1,0.1c0.1,0,0.1,0,0.2,0.1c0,0,0.1,0.1,0,0.2c0,0.1-0.1,0.2-0.3,0.4
	c-0.1-0.1-0.2-0.3-0.2-0.3C32.1,17.8,32.1,17.7,32.2,17.5z M29.3,131.4v0.7c-0.2,0.3-0.3,0.4-0.3,0.3
	C29,132.3,29.1,131.9,29.3,131.4z M28.6,14.8c0-0.2,0-0.3,0-0.3c0-0.1,0-0.1,0-0.1c0,0,0-0.1,0-0.2c0-0.1,0-0.2-0.1-0.5h0.4
	c0,0.3,0.1,0.5,0.1,0.7c0,0.2,0,0.3,0,0.4c0,0.1-0.1,0.1-0.2,0.1c-0.1,0-0.3,0-0.5-0.1C28.3,14.6,28.4,14.6,28.6,14.8z M27.2,123.3
	c0,0,0-0.1,0-0.1c0,0.1,0.1,0,0.1-0.1c0.1-0.1,0.1-0.2,0.2-0.3c0-0.1,0.1-0.1,0.1,0c0,0.1,0,0.3-0.1,0.7h-0.3
	C27.2,123.5,27.2,123.4,27.2,123.3z M24.8,69.8c0-0.1,0-0.1,0.1-0.2c0-0.1,0-0.1,0-0.2c0,0,0-0.1,0.1,0c0.1,0,0.2,0.1,0.3,0.2
	C25.1,69.7,24.9,69.8,24.8,69.8z M26.8,134.1c-0.2,0.3-0.3,0.5-0.3,0.7c0,0.2,0.1,0.3,0.1,0.4c0,0.1,0,0.2-0.1,0.3
	c-0.1,0.1-0.4,0.2-0.8,0.3c-0.1-0.4-0.1-0.7-0.1-1c0-0.3,0.1-0.6,0.4-0.9c-0.3-0.1-0.4,0-0.6,0.2c0-0.4,0.2-0.6,0.7-0.4
	c0-0.2,0-0.3,0-0.5c0-0.1,0-0.3,0-0.5c0.3,0.1,0.5,0.4,0.6,0.7c0.2,0.3,0.3,0.6,0.4,0.9C27.1,134.3,27,134.3,26.8,134.1z
	 M27.5,131.2c0.2,0.3,0.1,0.4-0.2,0.5L27.5,131.2z M27.9,134.2c-0.1,0.4-0.3,0.6-0.6,0.7c0.1-0.3,0.2-0.6,0.3-0.7
	c0.1-0.2,0.2-0.4,0.4-0.7C28.1,133.6,28.1,133.9,27.9,134.2z M27.7,133.2c-0.2-0.2-0.2-0.3,0-0.4c0.4,0,0.6,0.2,0.5,0.6
	C28.1,133.1,27.9,133,27.7,133.2z M28,122c0,0,0-0.1,0.1-0.4c0.1,0.1,0.1,0.2,0.1,0.3c0,0.1,0,0.2,0.1,0.2C28.1,122,28,121.9,28,122
	z M29.1,134.4c-0.5,0-0.6-0.3-0.2-1C29.4,133.5,29.5,133.9,29.1,134.4z M29.6,123.6c0.2,0.1,0.3,0.1,0.3,0.1c0.1,0,0.1,0.1,0.1,0.1
	c0,0,0,0.1,0,0.2c0,0.1,0,0.3,0,0.5h-0.4V123.6z M30.5,126.8c-0.2,0.1-0.3,0.2-0.4,0.3c-0.1-0.3,0-0.6,0.1-0.8
	c0.1-0.3,0.3-0.2,0.7,0.1C30.8,126.6,30.7,126.7,30.5,126.8z M32.3,19.7c-0.2-0.5-0.3-0.9-0.2-1.3l0.5,0.6
	C32.7,19.4,32.6,19.7,32.3,19.7z M34.3,72.4c0,0-0.1,0-0.1,0c-0.1,0-0.1,0.1-0.1,0.2c0,0.1,0,0.2,0,0.2s0-0.1,0-0.2
	c0-0.1,0-0.2,0-0.3c0-0.1,0-0.2,0-0.2C34.1,72.3,34.2,72.4,34.3,72.4C34.3,72.4,34.3,72.4,34.3,72.4z M35.2,21.9
	c-0.1,0-0.3,0-0.6,0.1c0-0.1,0-0.2,0-0.3c0-0.1,0-0.2,0-0.3c0.1,0.1,0.2,0.1,0.3,0c0.1,0,0.2,0,0.3,0c-0.1,0.2-0.1,0.3,0,0.4
	c0,0.1,0.1,0.1,0.1,0.1C35.3,21.9,35.3,21.9,35.2,21.9z M36.2,22.2c-0.1,0.1-0.4,0.2-0.9,0.1c0.1-0.4,0.3-0.7,0.5-0.9
	C36.2,21.8,36.3,22.1,36.2,22.2z M59.4,35.5c0.4,0.3,0.6,0.6,0.5,0.8c-0.1,0.3-0.3,0.5-0.7,0.7L59.4,35.5z M59.5,45.2
	c0,0.1,0,0.1-0.1,0.1c-0.2-0.1-0.3-0.3-0.2-0.3c0.1-0.1,0.1-0.3,0.2-0.5c0.1,0.2,0.2,0.3,0.3,0.4c0.1,0.1,0.1,0.2,0,0.4
	c-0.1-0.1-0.1-0.1-0.2-0.1c0,0-0.1,0-0.1,0C59.5,45.1,59.5,45.2,59.5,45.2z M58,28.2c-0.1,0.1-0.1,0.2,0,0.2s0.1,0.1-0.1,0.2
	c-0.2-0.2-0.3-0.3-0.3-0.4C57.6,28.1,57.7,28.1,58,28.2z M53.6,22.3c0.2,0,0.3,0,0.4,0.1s0,0.3-0.2,0.6
	C53.4,22.9,53.3,22.7,53.6,22.3z M50.8,25.1c0-0.1,0-0.3,0-0.4c0.3-0.1,0.5-0.1,0.6-0.2c0.1,0,0.2,0,0.4,0.2
	c-0.3,0.1-0.5,0.3-0.6,0.4c-0.1,0.1-0.3,0.3-0.5,0.4C50.7,25.4,50.7,25.3,50.8,25.1z M44.7,26.1c0.3,0.2,0.4,0.4,0.4,0.5
	c0,0.1-0.1,0.3-0.3,0.7c-0.2-0.2-0.2-0.4-0.2-0.5C44.6,26.6,44.7,26.4,44.7,26.1z M45,40.1c-0.4-0.2-0.5-0.6-0.2-1.1
	C45.1,39.4,45.2,39.7,45,40.1z M45,29.9c0.1-0.1,0.3-0.1,0.3,0c0.1,0.1,0.2,0.2,0.3,0.2C45.3,30.4,45.1,30.4,45,29.9z M45.9,28.7
	c0-0.1,0-0.2-0.1-0.5c0.2,0.1,0.3,0.3,0.3,0.4c0,0.1,0,0.2,0.1,0.4C46,28.9,45.9,28.8,45.9,28.7z M47,28.5c-0.1,0-0.1,0-0.2,0
	c-0.1,0-0.1-0.1-0.1-0.1s0-0.2,0.1-0.5c0.2,0.1,0.3,0.3,0.3,0.6C47.1,28.4,47.1,28.4,47,28.5z M48.2,71.9c-0.1,0-0.2,0-0.3,0v-0.8
	l0.5,0.5C48.4,71.8,48.3,71.9,48.2,71.9z M49.4,71.3c-0.3-0.1-0.3-0.3-0.2-0.7C49.5,70.7,49.6,70.9,49.4,71.3z M49.3,41.5
	c-0.1,0.1-0.2,0.1-0.3,0.2l0.3-1c0.1,0.3,0.2,0.6,0.2,0.9C49.5,41.4,49.4,41.4,49.3,41.5z M50.5,40.1c0.2,0.1,0.3,0.3,0.3,0.5
	C50.5,40.7,50.4,40.5,50.5,40.1z M51.7,67.1c-0.1,0-0.3-0.1-0.5-0.4l1,0.4C52,67.1,51.8,67.1,51.7,67.1z M53.3,24.8
	c0.2,0.3,0.4,0.5,0.7,0.5c-0.2,0.1-0.3,0.2-0.3,0.5c-0.1,0.2-0.2,0.5-0.3,0.7V24.8z M53.8,27.5c-0.2-0.2-0.2-0.5-0.2-0.8
	c0.3,0.1,0.4,0.1,0.5,0.2c0,0.1,0,0.1,0,0.2c0,0.1,0,0.2,0,0.3c0,0.1,0.2,0.2,0.4,0.3C54.2,27.7,53.9,27.7,53.8,27.5z M56.7,14
	c0-0.1,0-0.1,0.1-0.2c0-0.1,0-0.1,0-0.2c0,0,0-0.1,0.1,0c0.1,0,0.2,0.1,0.3,0.2C57,13.9,56.8,14,56.7,14z M57.8,71.3
	c0.3,0.4,0.4,0.7,0.3,1c-0.1,0.3-0.4,0.5-0.8,0.7L57.8,71.3z M57.7,76.3v-0.8c0.2,0.2,0.3,0.3,0.4,0.4C58.1,76.2,58,76.3,57.7,76.3z
	 M57.9,74c-0.1,0-0.1-0.1-0.1-0.3c0.3-0.1,0.5,0,0.4,0.4C58,74.1,58,74,57.9,74z M58,26.6c-0.1-0.2-0.1-0.5-0.1-0.7
	c0.1,0.3,0.3,0.5,0.4,0.7c0.1,0.1,0.1,0.4,0.1,0.6C58.2,27,58.1,26.8,58,26.6z M58.8,60.2v-0.3c0.2-0.1,0.3,0,0.4,0
	c0,0.1,0.1,0.2,0.1,0.4C59.1,60.2,59,60.1,58.8,60.2z M59.8,70.7c-0.1,0.1-0.3,0-0.5-0.1v-0.8c0.1,0.1,0.2,0.3,0.3,0.5
	c0-0.1,0-0.1,0.1-0.2c0.1-0.2,0.2-0.4,0.5-0.6c-0.1,0.4-0.3,0.7-0.5,0.9C59.7,70.6,59.7,70.6,59.8,70.7z M61.2,64.2
	c-0.1,0-0.1,0.1-0.1,0.2c-0.1-0.1-0.2-0.1-0.2-0.2s0-0.2,0.1-0.3c0.1,0.1,0.2,0.1,0.3,0c0.1-0.1,0.2,0.1,0.1,0.3
	C61.4,64.3,61.3,64.2,61.2,64.2z M61.9,66.5c0,0-0.1,0.1-0.1,0.1c0,0-0.1,0-0.1-0.1c0-0.1-0.1-0.2-0.1-0.4c0.1,0.1,0.2,0.1,0.2,0.2
	c0.1,0.1,0.1,0.2,0.2,0.3C62,66.5,61.9,66.5,61.9,66.5z M66.2,79.7c-0.1,0.1-0.2,0.1-0.3,0.1c-0.1,0-0.1,0-0.2,0l0.3-0.5
	c0.1-0.1,0.2,0,0.3,0C66.2,79.5,66.2,79.6,66.2,79.7z M66.4,65.9c-0.1,0-0.1,0-0.2-0.1c0-0.1,0-0.2,0-0.4c0.2-0.1,0.3-0.1,0.4,0
	c0.1,0,0.2,0.1,0.2,0.1s0-0.1,0-0.2c-0.1-0.1-0.2-0.3-0.3-0.7h0.4c-0.1,0.5,0,0.9,0.3,1.1c-0.2,0.1-0.4,0.1-0.5,0.2
	C66.6,65.9,66.4,65.9,66.4,65.9z M67.3,73.8c-0.1-0.1-0.1-0.3-0.2-0.5c0-0.2,0-0.3,0.1-0.5c0.1,0.1,0.1,0.3,0.1,0.4
	C67.4,73.5,67.4,73.7,67.3,73.8z M67.7,69.1c0,0.2-0.1,0.4-0.3,0.5c-0.2-0.2-0.3-0.5-0.3-0.7C67,68.7,67,68.4,67,68.2h0.4v0.7
	c0.1,0,0.1,0,0.2,0c0.1,0,0.1-0.1,0.2-0.1C67.7,68.7,67.7,68.9,67.7,69.1z M68.2,63.5c0-0.1-0.1-0.2-0.1-0.4s0-0.4,0-0.6
	c0-0.2,0-0.4,0-0.4c0.3,0.3,0.3,0.7,0.3,1.2C68.4,63.5,68.3,63.6,68.2,63.5z M70.1,70.5l0.3-0.7c0.3,0.2,0.4,0.4,0.3,0.5
	C70.6,70.5,70.4,70.5,70.1,70.5z M75,21.6L75,21.6C75,21.6,75,21.6,75,21.6c0,0-0.1,0.1-0.1,0.1c-1.3,1.5-3.6,2-5.4,1.1
	c-0.3-0.1-0.5-0.3-0.7-0.4c-1.1-0.8-1.7-2.1-1.7-3.4c0-1,0.3-2.1,1-2.9c0.6-0.7,1.4-1.2,2.2-1.4c1.2-0.3,2.5-0.2,3.5,0.5
	c0.2,0.1,0.3,0.2,0.5,0.3c0.4,0.3,0.8,0.8,1,1.2c0,0,0.1,0.1,0.1,0.1C76.1,18.3,76.1,20.2,75,21.6z M69.6,173.6c0.2-6,1-12,1.5-18.2
	c-7.6,0.2-22.8,0.5-22.8,0.5c0.2,0.9,0.4,1.7,0.7,2.4c3.4,7.9,3.3,16.1,1.1,24.3c-0.1,0.4-0.2,0.8-0.3,1.2
	c-1.9,9.2-2.5,18.3,0.2,27.4c1.2,4,1.7,8.1,2.5,12.2c0.5,2.7-0.2,4.8-2.9,6c-1.3,0.6-2.5,1.4-3.6,2.3c-2.5,1.8-2.8,4.4-0.5,6.5
	c1.1,1,2.8,1.8,4.3,1.9c5.2,0.1,10.5,0,15.7-0.2c3.3-0.1,5.7-2.6,5.7-5.9c0-3.2,0-6.4-0.2-9.6C69.6,207.4,68.9,190.5,69.6,173.6z
	 M50.8,198.5c-0.1,0-0.2,0-0.3,0v-0.8l0.5,0.5C50.9,198.4,50.9,198.5,50.8,198.5z M52,197.9c-0.3-0.1-0.3-0.3-0.2-0.7
	C52.1,197.2,52.1,197.5,52,197.9z M57.7,174c0.6-0.9,1.5-1.4,2.4-1.6c0.9-0.2,1.8-0.1,2.7,0.3c0.2,0.1,0.3,0.1,0.5,0.2
	c0.2,0.1,0.3,0.2,0.4,0.4c1.6,1.3,2,3.6,0.8,5.3c-0.8,1.2-2.1,1.8-3.4,1.9c-0.8,0-1.6-0.2-2.3-0.6C56.9,178.7,56.4,175.9,57.7,174z
	 M64.7,208.4c-0.3,0.1-0.4,0.1-0.4,0c0-0.1,0.2-0.4,0.5-0.8C64.9,207.9,64.9,208.2,64.7,208.4z M63.8,195.1
	c-0.1-0.1-0.2-0.4-0.1-0.6C63.9,194.6,63.9,194.8,63.8,195.1z M57,196.8c1.2-1.9,3.8-2.4,5.7-1.2c1.9,1.2,2.4,3.8,1.1,5.7
	c-1.3,2-3.8,2.5-5.7,1.2C56.2,201.2,55.7,198.7,57,196.8z M64.2,208.8c-0.1-0.1-0.2-0.2-0.2-0.2c0,0,0-0.1,0-0.2L64.2,208.8z
	 M63.5,212.1c-0.2,0.1-0.2,0-0.2-0.2c0-0.2,0.1-0.4,0.4-0.8C63.9,211.5,63.9,211.8,63.5,212.1z M62.8,212.9
	c-0.1-0.1-0.2-0.2-0.3-0.3c0,0-0.1-0.1-0.1-0.3C62.7,212.5,62.8,212.6,62.8,212.9z M65,223c-1.3,1.8-3.9,2.3-5.8,1.1
	c-0.2-0.2-0.4-0.3-0.6-0.5c-1.3-1.4-1.5-3.5-0.3-5.2c1.4-2,3.7-2.4,5.7-1.1c0.2,0.2,0.4,0.3,0.6,0.5C65.9,219.2,66.1,221.4,65,223z
	 M65.5,204c0.1-0.1,0.1-0.2,0.1-0.3v-0.4C65.9,203.8,65.9,204,65.5,204z M0.2,81.2c0-0.3,0-0.5,0-0.8c0,0,0,0,0,0c0,0.1,0,0.3,0,0.4
	C0.2,81,0.2,81.1,0.2,81.2z"/>
</svg>
